<svg display="none" xmlns="http://www.w3.org/2000/svg">
	<symbol id="instagram" viewBox="0 0 17 16">
		<g><g><path fill="#3c70be" d="M14.317.09a2.06 2.06 0 0 1 2.053 2.054v11.892c0 1.13-.924 2.053-2.053 2.053H2.424A2.06 2.06 0 0 1 .37 14.036V2.144A2.06 2.06 0 0 1 2.424.09zm-2.291 1.777a.723.723 0 0 0-.72.721v1.724c0 .396.323.72.72.72h1.808c.396 0 .72-.324.72-.72V2.588a.723.723 0 0 0-.72-.721h-1.808zm1.127 4.989c.134.436.206.895.206 1.373 0 2.66-2.227 4.819-4.974 4.819-2.746 0-4.974-2.158-4.974-4.819a4.7 4.7 0 0 1 .206-1.373H2.15v6.759c0 .35.285.634.635.634h11.142c.35 0 .635-.284.635-.634v-6.76zM8.385 4.94c-1.774 0-3.213 1.394-3.213 3.115 0 1.718 1.44 3.113 3.213 3.113 1.775 0 3.214-1.395 3.214-3.113 0-1.721-1.44-3.115-3.214-3.115z"/></g></g>
	</symbol>
	
	<symbol id="facebook" viewBox="0 0 16 16">
		<g><g><path fill="#3c70be" d="M8.546 16H.883A.883.883 0 0 1 0 15.117V.883C0 .395.395 0 .883 0h14.234c.488 0 .883.395.883.883v14.234a.883.883 0 0 1-.883.883H11.04V9.804h2.08l.31-2.415h-2.39V5.848c0-.7.194-1.176 1.196-1.176h1.28v-2.16c-.222-.03-.981-.095-1.864-.095-1.844 0-3.106 1.125-3.106 3.191V7.39H6.461v2.415h2.085V16z"/></g></g>
	</symbol>
	
	<symbol id="search" viewBox="0 0 16 16">
		<defs><clipPath id="ru36a"><path d="M0 6.5a6.5 6.5 0 1 1 13 0 6.5 6.5 0 0 1-13 0zM6.5 11a4.5 4.5 0 1 0 0-9 4.5 4.5 0 0 0 0 9zm9.502 3.59l-1.42 1.407-3.29-3.29 1.415-1.414z"/></clipPath></defs><g><g><g/><g><path d="M0 6.5a6.5 6.5 0 1 1 13 0 6.5 6.5 0 0 1-13 0zM6.5 11a4.5 4.5 0 1 0 0-9 4.5 4.5 0 0 0 0 9zm9.502 3.59l-1.42 1.407-3.29-3.29 1.415-1.414z"/></g><g clip-path="url(#ru36a)"></g></g></g>
	</symbol>
	
	<symbol id="cart" viewBox="0 0 16 16">
		<defs><clipPath id="2y02a"><path d="M2 2H0V0h3a1 1 0 0 1 1 1v1h11a1 1 0 0 1 .962 1.275l-2 7A1 1 0 0 1 13 11H3a1 1 0 0 1-1-1zm3 12a2 2 0 1 1-4 0 2 2 0 0 1 4 0zm10 0a2 2 0 1 1-4 0 2 2 0 0 1 4 0zM13.674 4H4v5h8.246z"/></clipPath></defs><g><g><g/><g><path d="M2 2H0V0h3a1 1 0 0 1 1 1v1h11a1 1 0 0 1 .962 1.275l-2 7A1 1 0 0 1 13 11H3a1 1 0 0 1-1-1zm3 12a2 2 0 1 1-4 0 2 2 0 0 1 4 0zm10 0a2 2 0 1 1-4 0 2 2 0 0 1 4 0zM13.674 4H4v5h8.246z"/></g><g clip-path="url(#2y02a)"></g></g></g>
	</symbol>
	
	<symbol id="user" viewBox="0 0 14 16">
		<defs>
			<clipPath id="xzxca">
				<path d="M7 0a4 4 0 1 1 0 8 4 4 0 0 1 0-8zm0 2a2 2 0 1 0 0 4 2 2 0 0 0 0-4zm3 7a4 4 0 0 1 4 4v3H0v-3a4 4 0 0 1 4-4zm2 4a2 2 0 0 0-2-2H4a2 2 0 0 0-2 2v1h10z"/></clipPath>
				</defs><g><g><g/><g><path d="M7 0a4 4 0 1 1 0 8 4 4 0 0 1 0-8zm0 2a2 2 0 1 0 0 4 2 2 0 0 0 0-4zm3 7a4 4 0 0 1 4 4v3H0v-3a4 4 0 0 1 4-4zm2 4a2 2 0 0 0-2-2H4a2 2 0 0 0-2 2v1h10z"/></g><g clip-path="url(#xzxca)"></g></g></g>
	</symbol>
	
	<symbol id="clock" viewBox="0 0 20 20">
		<path d="M10 0C4.486 0 0 4.486 0 10C0 15.514 4.486 20 10 20C15.514 20 20 15.514 20 10C20 4.486 15.514 0 10 0ZM10 19.3333C4.85367 19.3333 0.666667 15.1463 0.666667 10C0.666667 4.85367 4.85367 0.666667 10 0.666667C15.1463 0.666667 19.3333 4.85367 19.3333 10C19.3333 15.1463 15.1463 19.3333 10 19.3333Z" fill="#3C70BE"/>
		<path d="M10.3333 8.67367V5.293C10.3333 5.10867 10.184 4.95967 10 4.95967C9.816 4.95967 9.66667 5.10867 9.66667 5.293V8.67367C9.20033 8.795 8.83533 9.16 8.714 9.62633H6.33333C6.14933 9.62633 6 9.77533 6 9.95967C6 10.144 6.14933 10.293 6.33333 10.293H8.714C8.863 10.8663 9.38067 11.293 10 11.293C10.7353 11.293 11.3333 10.695 11.3333 9.95967C11.3333 9.34 10.9067 8.82267 10.3333 8.67367ZM10 10.6263C9.63233 10.6263 9.33333 10.3273 9.33333 9.95967C9.33333 9.592 9.63233 9.293 10 9.293C10.3677 9.293 10.6667 9.592 10.6667 9.95967C10.6667 10.3273 10.3677 10.6263 10 10.6263Z" fill="#3C70BE"/>
		<path d="M9.99935 3.293C10.1834 3.293 10.3327 3.144 10.3327 2.95967V2.62634C10.3327 2.442 10.1834 2.293 9.99935 2.293C9.81535 2.293 9.66602 2.442 9.66602 2.62634V2.95967C9.66602 3.144 9.81535 3.293 9.99935 3.293Z" fill="#3C70BE"/>
		<path d="M9.99935 16.6263C9.81535 16.6263 9.66602 16.7753 9.66602 16.9597V17.293C9.66602 17.4773 9.81535 17.6263 9.99935 17.6263C10.1834 17.6263 10.3327 17.4773 10.3327 17.293V16.9597C10.3327 16.7753 10.1834 16.6263 9.99935 16.6263Z" fill="#3C70BE"/>
		<path d="M17.3327 9.62634H16.9993C16.8153 9.62634 16.666 9.77533 16.666 9.95967C16.666 10.144 16.8153 10.293 16.9993 10.293H17.3327C17.5167 10.293 17.666 10.144 17.666 9.95967C17.666 9.77533 17.5167 9.62634 17.3327 9.62634Z" fill="#3C70BE"/>
		<path d="M3.00065 9.62634H2.66732C2.48332 9.62634 2.33398 9.77533 2.33398 9.95967C2.33398 10.144 2.48332 10.293 2.66732 10.293H3.00065C3.18465 10.293 3.33398 10.144 3.33398 9.95967C3.33398 9.77533 3.18465 9.62634 3.00065 9.62634Z" fill="#3C70BE"/>
		<path d="M14.9487 4.53833L14.713 4.774C14.5827 4.90433 14.5827 5.115 14.713 5.24533C14.778 5.31033 14.8633 5.343 14.9487 5.343C15.034 5.343 15.1193 5.31033 15.1843 5.24533L15.42 5.00967C15.5503 4.87933 15.5503 4.66867 15.42 4.53833C15.2897 4.408 15.079 4.40833 14.9487 4.53833Z" fill="#3C70BE"/>
		<path d="M4.81389 14.6737L4.57822 14.9093C4.44789 15.0397 4.44789 15.2503 4.57822 15.3807C4.64322 15.4457 4.72855 15.4783 4.81389 15.4783C4.89922 15.4783 4.98455 15.4457 5.04955 15.3807L5.28522 15.145C5.41555 15.0147 5.41555 14.804 5.28522 14.6737C5.15488 14.5433 4.94389 14.5437 4.81389 14.6737Z" fill="#3C70BE"/>
		<path d="M15.1843 14.6737C15.054 14.5433 14.8433 14.5433 14.713 14.6737C14.5827 14.804 14.5827 15.0147 14.713 15.145L14.9487 15.3807C15.0137 15.4457 15.099 15.4783 15.1843 15.4783C15.2697 15.4783 15.355 15.4457 15.42 15.3807C15.5503 15.2503 15.5503 15.0397 15.42 14.9093L15.1843 14.6737Z" fill="#3C70BE"/>
		<path d="M5.04955 4.53833C4.91922 4.408 4.70855 4.408 4.57822 4.53833C4.44789 4.66867 4.44789 4.87933 4.57822 5.00966L4.81389 5.24533C4.87889 5.31033 4.96422 5.343 5.04955 5.343C5.13488 5.343 5.22022 5.31033 5.28522 5.24533C5.41555 5.115 5.41555 4.90433 5.28522 4.774L5.04955 4.53833Z" fill="#3C70BE"/>
	</symbol>
	<symbol id="mail" viewBox="0 0 17 15">
		<path d="M16.15 0.983398H0.85C0.380574 0.983398 0 1.36394 0 1.8334V13.1667C0 13.6361 0.380541 14.0167 0.85 14.0167H16.15C16.6194 14.0167 17 13.6362 17 13.1667V1.8334C17 1.36397 16.6195 0.983398 16.15 0.983398ZM16.4333 13.1668C16.4333 13.3232 16.3065 13.4501 16.15 13.4501H0.85C0.693514 13.4501 0.566678 13.3232 0.566678 13.1668V1.8334C0.566678 1.67691 0.693514 1.55008 0.85 1.55008H16.15C16.3065 1.55008 16.4333 1.67691 16.4333 1.8334V13.1668Z" fill="#3C70BE"/>
		<path d="M15.6081 2.11779C15.5332 2.11125 15.4588 2.13473 15.4012 2.18307L8.8647 7.67404C8.6539 7.85124 8.3462 7.85124 8.1354 7.67404L1.59893 2.18304C1.5214 2.11796 1.41502 2.09917 1.31989 2.13376C1.22476 2.16836 1.1553 2.2511 1.1377 2.35081C1.12011 2.45052 1.15703 2.55202 1.23456 2.6171L7.77106 8.10781C8.19234 8.46251 8.80779 8.46251 9.22911 8.10781L15.7656 2.61713C15.8232 2.56882 15.8591 2.49963 15.8657 2.42476C15.8722 2.34988 15.8487 2.27547 15.8004 2.21793C15.7521 2.16033 15.6829 2.12433 15.6081 2.11779Z" fill="#3C70BE"/>
		<path d="M5.44948 8.06882C5.34918 8.04644 5.24465 8.08011 5.17625 8.15681L1.20958 12.4068C1.13779 12.4803 1.11143 12.587 1.14072 12.6854C1.17 12.784 1.25032 12.8589 1.35059 12.8812C1.4509 12.9036 1.55542 12.87 1.62382 12.7933L5.5905 8.54326C5.66228 8.46975 5.68864 8.3631 5.65936 8.26462C5.63007 8.16614 5.54979 8.0912 5.44948 8.06882Z" fill="#3C70BE"/>
		<path d="M11.8234 8.15681C11.755 8.08011 11.6505 8.04644 11.5502 8.06882C11.4499 8.0912 11.3696 8.16614 11.3403 8.26462C11.311 8.36313 11.3374 8.46975 11.4091 8.54326L15.3758 12.7933C15.4834 12.9034 15.6592 12.9075 15.7718 12.8025C15.8844 12.6974 15.8925 12.5217 15.7901 12.4068L11.8234 8.15681Z" fill="#3C70BE"/>
	</symbol>

	<symbol id="phone" viewBox="0 0 13 21">
		<path d="M4.75067 1.05005H8.25067C8.44385 1.05005 8.60065 1.20685 8.60065 1.40004C8.60065 1.59322 8.44385 1.75002 8.25067 1.75002H4.75067C4.55749 1.75002 4.40069 1.59322 4.40069 1.40004C4.40069 1.20685 4.55749 1.05005 4.75067 1.05005Z" fill="#3C70BE"/>
		<path d="M2.30003 1.05005H2.65001C2.8432 1.05005 3 1.20685 3 1.40004C3 1.59322 2.8432 1.75002 2.65001 1.75002H2.30003C2.10684 1.75002 1.95004 1.59322 1.95004 1.40004C1.95004 1.20685 2.10684 1.05005 2.30003 1.05005Z" fill="#3C70BE"/>
		<path d="M6.06767 17.85H6.93671C7.46905 17.85 7.90234 18.2833 7.90234 18.8156V18.9847C7.90234 19.517 7.46905 19.95 6.93704 19.95H6.068C5.53566 19.95 5.10237 19.517 5.10237 18.9847V18.8156C5.10237 18.2833 5.53566 17.85 6.06767 17.85ZM5.80234 18.9847C5.80234 19.131 5.92133 19.25 6.06763 19.25H6.93671C7.08334 19.25 7.20237 19.131 7.20237 18.9847V18.8156C7.20237 18.669 7.08338 18.5499 6.93671 18.5499H6.068C5.92133 18.5499 5.80234 18.6689 5.80234 18.8156V18.9847Z" fill="#3C70BE"/>
		<path d="M1.81411 0H11.184C11.8815 0 12.4492 0.567697 12.4492 1.26525V19.7348C12.4492 20.4323 11.8815 21 11.184 21H1.81448C1.11693 21 0.549233 20.4323 0.549233 19.7351V1.26525C0.549192 0.567697 1.11689 0 1.81411 0ZM1.24921 19.7348C1.24921 20.0463 1.5026 20.3 1.81411 20.3H11.184C11.4958 20.3 11.7492 20.0462 11.7492 19.7351V1.26525C11.7492 0.953736 11.4958 0.700014 11.184 0.700014H1.81448C1.50264 0.700014 1.24925 0.953777 1.24925 1.26525V19.7348H1.24921Z" fill="#3C70BE"/>
		<path d="M0.900028 2.09998H12.1C12.2932 2.09998 12.45 2.25678 12.45 2.44996V17.15C12.45 17.3431 12.2932 17.4999 12.1 17.4999H0.899986C0.706803 17.4999 0.550001 17.3431 0.550001 17.15V2.44996C0.550001 2.25678 0.706803 2.09998 0.900028 2.09998ZM1.25001 16.8H11.75V2.79999H1.25001V16.8Z" fill="#3C70BE"/>
	</symbol>

	<symbol id="mark" viewBox="0 0 16 22">
		<path d="M8.07414 4.82129C6.52369 4.82129 5.26172 6.08326 5.26172 7.63372C5.26172 9.18417 6.52369 10.4461 8.07414 10.4461C9.62459 10.4461 10.8866 9.18417 10.8866 7.63372C10.8866 6.08326 9.62459 4.82129 8.07414 4.82129ZM8.07414 9.64259C6.96645 9.64259 6.06527 8.74141 6.06527 7.63372C6.06527 6.52602 6.96645 5.62484 8.07414 5.62484C9.18184 5.62484 10.083 6.52602 10.083 7.63372C10.083 8.74141 9.18184 9.64259 8.07414 9.64259Z" fill="#3C70BE"/>
		<path d="M13.45 2.25677C11.9947 0.801541 10.0598 0 8.0019 0C5.9436 0 4.00905 0.801541 2.55383 2.25677C-0.139273 4.94947 -0.473951 10.0159 1.82902 13.0854L8.0019 22L14.1655 13.0979C16.4777 10.0159 16.1431 4.94947 13.45 2.25677ZM13.5138 12.6282L8.0019 20.5882L2.4811 12.6157C0.392276 9.83063 0.691598 5.25522 3.12234 2.82488C4.4257 1.52152 6.15855 0.80355 8.0019 0.80355C9.84524 0.80355 11.5781 1.52152 12.8819 2.82488C15.3126 5.25522 15.6119 9.83063 13.5138 12.6282Z" fill="#3C70BE"/>
	</symbol>
	
	<symbol id="angle-left" viewBox="0 0 20 21">
		<g clip-path="url(#clip0)">
			<path d="M4.71114 11.197L13.4929 19.9759C13.8783 20.3602 14.5026 20.3602 14.8889 19.9759C15.2742 19.5915 15.2742 18.9672 14.8889 18.5828L6.80366 10.5005L14.8879 2.41822C15.2733 2.03386 15.2733 1.40954 14.8879 1.02421C14.5026 0.63984 13.8773 0.63984 13.492 1.02421L4.71016 9.80299C4.33074 10.1834 4.33074 10.8175 4.71114 11.197Z" />
		</g>
		<defs>
			<clipPath id="clip0">
				<rect x="0.0377197" y="0.735855" width="19.5283" height="19.5283" fill="white"/>
			</clipPath>
		</defs>
	</symbol>

	<symbol id="angle-right" viewBox="0 0 20 21">
		<g clip-path="url(#clip0)">
			<path d="M15.2888 9.80299L6.50702 1.02413C6.12168 0.639763 5.49737 0.639763 5.11105 1.02413C4.72571 1.40849 4.72571 2.0328 5.11105 2.41717L13.1963 10.4995L5.11203 18.5818C4.72669 18.9661 4.72669 19.5905 5.11203 19.9758C5.49736 20.3602 6.12265 20.3602 6.50799 19.9758L15.2898 11.197C15.6692 10.8166 15.6692 10.1825 15.2888 9.80299Z"/>
		</g>
		<defs>
			<clipPath id="clip0">
				<rect x="19.9622" y="20.2641" width="19.5283" height="19.5283" transform="rotate(-180 19.9622 20.2641)" fill="white"/>
			</clipPath>
		</defs>
	</symbol>

	<symbol id="read-more" viewBox="0 0 29 21">
		<path d="M28.9786 8.88032C28.8957 8.47111 28.5903 8.16396 28.1816 8.07866L25.9783 7.61915L28.5565 5.83515C28.8998 5.59755 29.0616 5.19576 28.9787 4.78655C28.8958 4.37733 28.5904 4.07024 28.1817 3.98494L23.8082 3.07283C23.5787 3.02503 23.3535 3.17224 23.3056 3.40196C23.2577 3.63163 23.405 3.85666 23.6348 3.90452L28.0083 4.81668C28.108 4.83746 28.1373 4.9124 28.1461 4.95527C28.1548 4.99815 28.1568 5.07863 28.0731 5.13657L24.1385 7.85924L19.2389 4.92956C18.9194 4.73857 18.5208 4.7354 18.1984 4.92146L9.71646 9.81571L0.991811 7.9962C0.892127 7.97541 0.862732 7.90048 0.854009 7.85766C0.845344 7.81484 0.843305 7.73436 0.927016 7.67641L10.312 1.1823C10.3519 1.15471 10.4019 1.14463 10.4493 1.15449L21.5411 3.46783C21.7707 3.51592 21.9957 3.36843 22.0436 3.13871C22.0915 2.90904 21.9442 2.68407 21.7145 2.63615L10.6227 0.322808C10.3484 0.265489 10.0589 0.324167 9.82849 0.483661L0.443607 6.97778C0.100264 7.21538 -0.0614956 7.61717 0.0214232 8.02638C0.104342 8.4356 0.409737 8.74269 0.81844 8.82793L3.02185 9.28744L0.443663 11.0714C0.100321 11.309 -0.061439 11.7108 0.0214232 12.12C0.104285 12.5293 0.40968 12.8364 0.81844 12.9216L3.02185 13.3811L0.443663 15.1651C0.100321 15.4026 -0.061439 15.8044 0.0214232 16.2136C0.104285 16.6228 0.40968 16.93 0.81844 17.0153L18.3776 20.6772C18.4464 20.6915 18.5162 20.6986 18.5857 20.6986C18.7934 20.6986 18.9991 20.6357 19.1717 20.5163L24.5535 16.7923C24.7464 16.6588 24.7946 16.3942 24.6611 16.2013C24.5276 16.0083 24.263 15.9601 24.0701 16.0937L18.6883 19.8177C18.6485 19.8452 18.5983 19.8555 18.551 19.8455L0.991867 16.1836C0.892184 16.1628 0.862732 16.0879 0.854066 16.045C0.8454 16.0022 0.843361 15.9217 0.927073 15.8638L4.16912 13.6204L9.67897 14.7695C9.70825 14.7756 9.73736 14.7785 9.76614 14.7785C9.96307 14.7785 10.1397 14.6408 10.1815 14.4404C10.2294 14.2107 10.0821 13.9857 9.8524 13.9378L0.991867 12.09C0.892184 12.0692 0.862732 11.9943 0.854066 11.9514C0.8454 11.9086 0.843361 11.8281 0.927073 11.7701L4.16912 9.52674L9.70162 10.6805C9.74897 10.6903 9.79644 10.692 9.84407 10.6857L15.5669 9.9287C15.5739 10.1579 15.7616 10.3405 15.9911 10.3405C15.993 10.3405 15.995 10.3405 15.9969 10.3405C16.2315 10.3373 16.4191 10.1447 16.4159 9.91007L16.4153 9.86453C16.4151 9.84839 16.4138 9.83259 16.4118 9.8169L22.7529 8.97808C22.7499 8.99943 22.748 9.02113 22.7482 9.04339L22.7488 9.08892C22.7518 9.32165 22.9414 9.50827 23.1735 9.50827C23.1753 9.50827 23.1772 9.50827 23.179 9.50827C23.4136 9.50527 23.6014 9.31264 23.5984 9.0781L23.5978 9.03257C23.5971 8.97514 23.5849 8.92059 23.5636 8.87092L24.2109 8.78528C24.2777 8.77645 24.3415 8.75187 24.3969 8.71347L25.0145 8.28607L28.008 8.91034C28.1077 8.93113 28.1372 9.00612 28.1459 9.04894C28.1546 9.09175 28.1566 9.17224 28.0729 9.23018L18.6883 15.724C18.6485 15.7516 18.5985 15.7617 18.551 15.7519L11.9339 14.3719C11.7044 14.324 11.4793 14.4713 11.4313 14.701C11.3834 14.9307 11.5308 15.1557 11.7604 15.2036L18.3776 16.5836C18.4464 16.5979 18.5162 16.605 18.5857 16.605C18.7934 16.605 18.9991 16.5421 19.1717 16.4226L25.0144 12.3797L28.0081 13.004C28.1078 13.0248 28.1372 13.0997 28.1459 13.1425C28.1546 13.1854 28.1566 13.2659 28.0729 13.3238L25.7771 14.9124C25.5842 15.0459 25.536 15.3106 25.6695 15.5035C25.752 15.6226 25.8844 15.6866 26.0192 15.6866C26.1026 15.6866 26.1868 15.6621 26.2605 15.6111L28.5563 14.0225C28.8996 13.7849 29.0614 13.3831 28.9785 12.9739C28.8957 12.5647 28.5903 12.2576 28.1815 12.1723L25.9781 11.7128L28.5563 9.92882C28.8996 9.69127 29.0615 9.28948 28.9786 8.88032ZM18.6229 5.65725C18.6786 5.62508 18.7476 5.62565 18.8028 5.65867L22.8906 8.10296L11.8546 9.56282L18.6229 5.65725Z" fill="#3C70BE"/>
		<path d="M16.9424 12.4389C16.9404 12.4389 16.9385 12.4389 16.9366 12.4389C16.702 12.4421 16.5143 12.6348 16.5175 12.8694L16.5181 12.9149C16.5212 13.1476 16.7108 13.3341 16.9428 13.3341C16.9447 13.3341 16.9467 13.3341 16.9486 13.3341C17.1832 13.3309 17.3708 13.1382 17.3677 12.9036L17.367 12.858C17.3639 12.6254 17.1743 12.4389 16.9424 12.4389Z" fill="#3C70BE"/>
		<path d="M16.9388 14.7702C16.9406 14.7702 16.9425 14.7702 16.9443 14.7702C17.1789 14.7672 17.3667 14.5746 17.3637 14.34L17.3631 14.2945C17.3601 14.0599 17.1684 13.8699 16.933 13.8751C16.6983 13.8781 16.5106 14.0707 16.5136 14.3053L16.5142 14.3508C16.5171 14.5836 16.7067 14.7702 16.9388 14.7702Z" fill="#3C70BE"/>
		<path d="M17.6428 14.0316L17.688 14.0311C17.9226 14.0281 18.1104 13.8354 18.1073 13.6008C18.1043 13.3662 17.9114 13.1778 17.6771 13.1815L17.6318 13.1821C17.3972 13.1851 17.2095 13.3777 17.2125 13.6123C17.2155 13.8451 17.4051 14.0317 17.6372 14.0317C17.6391 14.0316 17.641 14.0316 17.6428 14.0316Z" fill="#3C70BE"/>
		<path d="M16.2381 13.1775L16.1928 13.1781C15.9582 13.1813 15.7706 13.374 15.7738 13.6087C15.777 13.8413 15.9665 14.0277 16.1985 14.0277C16.2004 14.0277 16.2024 14.0277 16.2043 14.0277L16.2496 14.0271C16.4842 14.0239 16.6718 13.8313 16.6686 13.5966C16.6654 13.362 16.4727 13.1747 16.2381 13.1775Z" fill="#3C70BE"/>
		<path d="M20.1372 10.526C19.9026 10.5291 19.7149 10.7217 19.7179 10.9562L19.7184 11.0018C19.7214 11.2345 19.911 11.4211 20.1431 11.4211C20.1449 11.4211 20.1468 11.4211 20.1487 11.4211C20.3833 11.4181 20.571 11.2255 20.568 10.991L20.5675 10.9454C20.5644 10.7109 20.3721 10.5207 20.1372 10.526Z" fill="#3C70BE"/>
		<path d="M20.1333 11.9622C19.8987 11.9652 19.7109 12.1578 19.7139 12.3924L19.7145 12.4379C19.7175 12.6706 19.907 12.8573 20.1392 12.8573C20.141 12.8573 20.1428 12.8573 20.1447 12.8573C20.3793 12.8543 20.5671 12.6616 20.5641 12.4271L20.5635 12.3816C20.5605 12.147 20.3686 11.9596 20.1333 11.9622Z" fill="#3C70BE"/>
		<path d="M20.8434 12.1187L20.8887 12.1181C21.1233 12.1149 21.3109 11.9222 21.3077 11.6876C21.3046 11.453 21.1102 11.2656 20.8773 11.2685L20.832 11.2692C20.5974 11.2723 20.4098 11.465 20.4129 11.6996C20.4161 11.9323 20.6056 12.1187 20.8376 12.1187C20.8396 12.1188 20.8415 12.1188 20.8434 12.1187Z" fill="#3C70BE"/>
		<path d="M19.3935 11.2652C19.1589 11.2682 18.9711 11.4609 18.9742 11.6955C18.9772 11.9282 19.1668 12.1148 19.3989 12.1148C19.4007 12.1148 19.4026 12.1148 19.4044 12.1148L19.4497 12.1142C19.6843 12.1112 19.8721 11.9186 19.869 11.684C19.866 11.4494 19.6747 11.2609 19.4388 11.2647L19.3935 11.2652Z" fill="#3C70BE"/>
		<path d="M22.7444 10.4795L22.745 10.5251C22.748 10.7578 22.9375 10.9444 23.1696 10.9444C23.1715 10.9444 23.1733 10.9444 23.1752 10.9444C23.4098 10.9414 23.5976 10.7488 23.5946 10.5143L23.594 10.4687C23.591 10.2341 23.3989 10.0459 23.1638 10.0494C22.9292 10.0523 22.7414 10.2449 22.7444 10.4795Z" fill="#3C70BE"/>
		<path d="M23.8681 10.2059C23.8699 10.2059 23.8717 10.2059 23.8736 10.2059L23.9189 10.2053C24.1535 10.2023 24.3412 10.0097 24.3382 9.77505C24.3352 9.54045 24.1404 9.35098 23.9079 9.35574L23.8627 9.35631C23.6281 9.35931 23.4403 9.55194 23.4434 9.78655C23.4464 10.0192 23.6359 10.2059 23.8681 10.2059Z" fill="#3C70BE"/>
		<path d="M22.4692 9.35176L22.424 9.35232C22.1893 9.35533 22.0016 9.54796 22.0046 9.78257C22.0076 10.0153 22.1972 10.2019 22.4293 10.2019C22.4312 10.2019 22.433 10.2019 22.4349 10.2019L22.4801 10.2014C22.7147 10.1984 22.9025 10.0057 22.8994 9.77112C22.8964 9.53646 22.7019 9.3474 22.4692 9.35176Z" fill="#3C70BE"/>
		<path d="M12.7903 11.3583C12.7884 11.3583 12.7865 11.3583 12.7845 11.3583C12.5499 11.3615 12.3623 11.5542 12.3655 11.7888L12.3661 11.8343C12.3692 12.067 12.5588 12.2535 12.7908 12.2535C12.7927 12.2535 12.7946 12.2535 12.7965 12.2535C13.0312 12.2503 13.2188 12.0576 13.2156 11.823L13.215 11.7775C13.2119 11.5448 13.0223 11.3583 12.7903 11.3583Z" fill="#3C70BE"/>
		<path d="M12.7809 12.7944C12.5463 12.7975 12.3585 12.99 12.3615 13.2246L12.3621 13.2702C12.3651 13.5029 12.5547 13.6895 12.7868 13.6895C12.7886 13.6895 12.7905 13.6895 12.7924 13.6895C13.027 13.6865 13.2147 13.494 13.2117 13.2594L13.2112 13.2138C13.2081 12.9792 13.0146 12.7925 12.7809 12.7944Z" fill="#3C70BE"/>
		<path d="M13.491 12.951L13.5363 12.9503C13.7709 12.9472 13.9585 12.7545 13.9554 12.5199C13.9522 12.2853 13.7582 12.0961 13.5249 12.1008L13.4796 12.1014C13.245 12.1046 13.0574 12.2973 13.0606 12.5319C13.0637 12.7646 13.2532 12.951 13.4852 12.951C13.4871 12.951 13.4891 12.951 13.491 12.951Z" fill="#3C70BE"/>
		<path d="M12.0411 12.0975C11.8065 12.1005 11.6187 12.2931 11.6218 12.5277C11.6248 12.7605 11.8144 12.9471 12.0465 12.9471C12.0484 12.9471 12.0502 12.9471 12.052 12.9471L12.0973 12.9465C12.3319 12.9435 12.5197 12.7509 12.5166 12.5163C12.5136 12.2816 12.3214 12.0954 12.0864 12.097L12.0411 12.0975Z" fill="#3C70BE"/>
		<path d="M15.5619 11.3118L15.5625 11.3573C15.5655 11.5901 15.755 11.7767 15.9872 11.7767C15.989 11.7767 15.9908 11.7767 15.9927 11.7767C16.2273 11.7737 16.4151 11.5811 16.4121 11.3465L16.4115 11.301C16.4085 11.0664 16.215 10.8788 15.9813 10.8816C15.7467 10.8846 15.5589 11.0772 15.5619 11.3118Z" fill="#3C70BE"/>
		<path d="M16.7255 10.188L16.6802 10.1885C16.4456 10.1915 16.2579 10.3842 16.2609 10.6188C16.2639 10.8515 16.4535 11.0381 16.6856 11.0381C16.6875 11.0381 16.6893 11.0381 16.6912 11.0381L16.7364 11.0376C16.971 11.0346 17.1588 10.8419 17.1557 10.6073C17.1527 10.3727 16.9582 10.1855 16.7255 10.188Z" fill="#3C70BE"/>
		<path d="M15.2865 10.184L15.2412 10.1846C15.0066 10.1878 14.819 10.3805 14.8222 10.6151C14.8254 10.8478 15.0149 11.0342 15.2469 11.0342C15.2488 11.0342 15.2508 11.0342 15.2527 11.0342L15.298 11.0336C15.5326 11.0304 15.7202 10.8377 15.717 10.6031C15.7138 10.3685 15.5205 10.1811 15.2865 10.184Z" fill="#3C70BE"/>
		<path d="M8.97854 11.5126C8.98047 11.5126 8.9824 11.5126 8.98432 11.5126C9.21893 11.5094 9.40658 11.3167 9.4034 11.0821L9.40278 11.0366C9.39961 10.802 9.2093 10.6148 8.97231 10.6175C8.73771 10.6207 8.55006 10.8134 8.55323 11.048L8.55385 11.0935C8.55703 11.3261 8.74654 11.5126 8.97854 11.5126Z" fill="#3C70BE"/>
		<path d="M8.97464 12.9487C8.97645 12.9487 8.97832 12.9487 8.98019 12.9487C9.2148 12.9457 9.40256 12.7531 9.39956 12.5186L9.39899 12.473C9.39599 12.2403 9.20641 12.0536 8.9743 12.0536C8.97249 12.0536 8.97062 12.0536 8.96875 12.0536C8.73414 12.0567 8.54638 12.2493 8.54938 12.4838L8.54995 12.5294C8.55295 12.7621 8.74253 12.9487 8.97464 12.9487Z" fill="#3C70BE"/>
		<path d="M9.6786 12.2101L9.72386 12.2096C9.95846 12.2066 10.1462 12.0139 10.1432 11.7793C10.1402 11.5447 9.94702 11.3551 9.71293 11.36L9.66767 11.3606C9.43306 11.3636 9.2453 11.5562 9.24836 11.7908C9.25136 12.0236 9.44094 12.2102 9.67305 12.2102C9.67492 12.2101 9.67673 12.2101 9.6786 12.2101Z" fill="#3C70BE"/>
		<path d="M8.22866 11.3567C7.99406 11.3598 7.80641 11.5525 7.80958 11.7871C7.81269 12.0198 8.00227 12.2062 8.23427 12.2062C8.2362 12.2062 8.23818 12.2062 8.2401 12.2062L8.28536 12.2056C8.51996 12.2024 8.70761 12.0097 8.70444 11.7751C8.70127 11.5405 8.50773 11.3537 8.27397 11.356L8.22866 11.3567Z" fill="#3C70BE"/>
		<path d="M4.99646 10.9417C4.99839 10.9417 5.00031 10.9417 5.00224 10.9417C5.23684 10.9386 5.42449 10.7459 5.42132 10.5113L5.4207 10.4657C5.41753 10.2311 5.22654 10.042 4.99023 10.0467C4.75562 10.0498 4.56797 10.2425 4.57115 10.4771L4.57177 10.5227C4.57494 10.7553 4.76446 10.9417 4.99646 10.9417Z" fill="#3C70BE"/>
		<path d="M4.99255 12.3779C4.99448 12.3779 4.99641 12.3779 4.99833 12.3779C5.23294 12.3747 5.42059 12.182 5.41742 11.9474L5.41679 11.9019C5.41362 11.6673 5.22314 11.4792 4.98632 11.4828C4.75172 11.4859 4.56407 11.6786 4.56724 11.9132L4.56786 11.9588C4.57098 12.1914 4.76055 12.3779 4.99255 12.3779Z" fill="#3C70BE"/>
		<path d="M5.69674 11.6392L5.742 11.6386C5.9766 11.6354 6.16426 11.4427 6.16108 11.2081C6.15791 10.9735 5.96545 10.7843 5.73061 10.789L5.68536 10.7897C5.45075 10.7928 5.2631 10.9855 5.26627 11.2201C5.26939 11.4528 5.45897 11.6392 5.69097 11.6392C5.69289 11.6393 5.69487 11.6393 5.69674 11.6392Z" fill="#3C70BE"/>
		<path d="M4.24683 10.7858C4.01223 10.7888 3.82446 10.9814 3.82752 11.216C3.83052 11.4487 4.0201 11.6354 4.25221 11.6354C4.25408 11.6354 4.25589 11.6354 4.25776 11.6354L4.30302 11.6348C4.53762 11.6318 4.72539 11.4392 4.72233 11.2046C4.71933 10.97 4.5246 10.7825 4.29209 10.7852L4.24683 10.7858Z" fill="#3C70BE"/>
	</symbol>
	<symbol id="q-box" viewBox="0 0 59 59">
		<path d="M29.5 31.6779C21.9672 31.6779 15.8389 37.8063 15.8389 45.3389C15.8389 52.8715 21.9672 59 29.5 59C37.0327 59 43.161 52.8716 43.161 45.339C43.161 37.8064 37.0327 31.6779 29.5 31.6779ZM29.5 57.0202C23.0589 57.0202 17.8188 51.78 17.8188 45.339C17.8188 38.898 23.0589 33.6578 29.5 33.6578C35.941 33.6578 41.1812 38.898 41.1812 45.339C41.1812 51.78 35.941 57.0202 29.5 57.0202Z" fill="white"/>
		<path d="M37.5914 40.4152C37.2049 40.0286 36.5781 40.0286 36.1916 40.4152L27.3881 49.2187L22.8085 44.639C22.4219 44.2524 21.7951 44.2524 21.4086 44.639C21.022 45.0256 21.022 45.6524 21.4086 46.0389L26.6883 51.3186C26.8816 51.5118 27.135 51.6085 27.3882 51.6085C27.6415 51.6085 27.8949 51.5119 28.0882 51.3186L37.5916 41.8152C37.9781 41.4286 37.9781 40.8017 37.5914 40.4152Z" fill="white"/>
		<path d="M53.7863 0H5.21364C3.50333 0 2.11188 1.39146 2.11188 3.10176V47.4507C2.11188 49.1611 3.50333 50.5525 5.21364 50.5525H12.6051C13.1518 50.5525 13.5951 50.1093 13.5951 49.5625C13.5951 49.0157 13.1519 48.5726 12.6051 48.5726H5.21364C4.59495 48.5726 4.09172 48.0693 4.09172 47.4506V3.10176C4.09172 2.48307 4.59495 1.97984 5.21364 1.97984H22.1745V16.8288C22.1745 17.1719 22.3522 17.4905 22.644 17.671C22.9356 17.8514 23.3001 17.8678 23.6071 17.7143L25.2763 16.8798L26.9451 17.7143C27.2237 17.8535 27.5518 17.8538 27.8305 17.7143L29.5004 16.8795L31.1695 17.7141C31.4482 17.8535 31.7762 17.8535 32.0551 17.7141L33.724 16.8795L35.3931 17.7141C35.5328 17.7839 35.6845 17.8186 35.8358 17.8186C36.0168 17.8186 36.1973 17.7689 36.3562 17.6707C36.648 17.4903 36.8257 17.1718 36.8257 16.8286V1.97984H53.7865C54.4052 1.97984 54.9085 2.48307 54.9085 3.10176V47.4507C54.9085 48.0694 54.4052 48.5727 53.7865 48.5727H46.3945C45.8478 48.5727 45.4045 49.0159 45.4045 49.5626C45.4045 50.1094 45.8477 50.5526 46.3945 50.5526H53.7865C55.4968 50.5526 56.8883 49.1612 56.8883 47.4509V3.10176C56.8881 1.39146 55.4966 0 53.7863 0ZM34.8456 15.2271L34.1665 14.8876C33.8878 14.7482 33.5598 14.7482 33.2809 14.8876L31.612 15.7221L29.9429 14.8876C29.6642 14.7484 29.3362 14.748 29.0576 14.8876L27.3876 15.7221L25.7187 14.8876C25.5792 14.8179 25.4276 14.7831 25.2759 14.7831C25.1243 14.7831 24.9726 14.8179 24.8332 14.8876L24.1541 15.2272V1.97984H34.8455V15.2271H34.8456Z" fill="white"/>
		<path d="M17.5288 14.0171C17.1422 13.6305 16.5154 13.6305 16.1289 14.0171L14.651 15.495V9.43737C14.651 8.89069 14.2078 8.44739 13.661 8.44739C13.1144 8.44739 12.6711 8.89058 12.6711 9.43737V15.495L11.1932 14.0171C10.8066 13.6305 10.1798 13.6305 9.79332 14.0171C9.4067 14.4037 9.4067 15.0305 9.79332 15.417L12.9611 18.5848C13.1544 18.778 13.4078 18.8747 13.661 18.8747C13.9143 18.8747 14.1677 18.7781 14.361 18.5848L17.5288 15.417C17.9154 15.0305 17.9154 14.4035 17.5288 14.0171Z" fill="white"/>
		<path d="M16.8289 4.22369H10.4933C9.9466 4.22369 9.5033 4.66689 9.5033 5.21367C9.5033 5.76034 9.94649 6.20365 10.4933 6.20365H16.8289C17.3755 6.20365 17.8188 5.76046 17.8188 5.21367C17.8188 4.667 17.3756 4.22369 16.8289 4.22369Z" fill="white"/>
	</symbol>
	<symbol id="q-choice" viewBox="0 0 67 67">
		<g clip-path="url(#clip0)">
			<path d="M20.6316 13.428C20.0523 13.428 19.5825 13.8976 19.5825 14.4771C19.5825 15.7497 18.5471 16.7851 17.2745 16.7851C16.0019 16.7851 14.9665 15.7497 14.9665 14.4771C14.9665 13.2045 16.0019 12.1691 17.2745 12.1691C17.8538 12.1691 18.3236 11.6995 18.3236 11.12C18.3236 10.5406 17.8539 10.0709 17.2745 10.0709C14.845 10.0709 12.8685 12.0476 12.8685 14.477C12.8685 16.9064 14.8451 18.883 17.2745 18.883C19.7039 18.883 21.6805 16.9064 21.6805 14.477C21.6807 13.8976 21.2109 13.428 20.6316 13.428Z" fill="white"/>
			<path d="M20.6316 25.7369C20.0523 25.7369 19.5825 26.2066 19.5825 26.786C19.5825 28.0587 18.5471 29.094 17.2745 29.094C16.0019 29.094 14.9665 28.0587 14.9665 26.786C14.9665 25.5134 16.0019 24.4781 17.2745 24.4781C17.8538 24.4781 18.3236 24.0084 18.3236 23.429C18.3236 22.8495 17.8539 22.3799 17.2745 22.3799C14.845 22.3799 12.8685 24.3565 12.8685 26.7859C12.8685 29.2153 14.8451 31.192 17.2745 31.192C19.7039 31.192 21.6805 29.2153 21.6805 26.7859C21.6807 26.2067 21.2109 25.7369 20.6316 25.7369Z" fill="white"/>
			<path d="M32.9404 27.975H25.1074C24.5281 27.975 24.0583 28.4446 24.0583 29.0241C24.0583 29.6035 24.528 30.0732 25.1074 30.0732H32.9404C33.5197 30.0732 33.9895 29.6035 33.9895 29.0241C33.9895 28.4446 33.5199 27.975 32.9404 27.975Z" fill="white"/>
			<path d="M32.9404 23.4989H25.1074C24.5281 23.4989 24.0583 23.9686 24.0583 24.548C24.0583 25.1274 24.528 25.5971 25.1074 25.5971H32.9404C33.5197 25.5971 33.9895 25.1274 33.9895 24.548C33.9895 23.9686 33.5199 23.4989 32.9404 23.4989Z" fill="white"/>
			<path d="M30.7025 40.2839H25.1074C24.5281 40.2839 24.0583 40.7536 24.0583 41.333C24.0583 41.9125 24.528 42.3821 25.1074 42.3821H30.7025C31.2818 42.3821 31.7516 41.9125 31.7516 41.333C31.7516 40.7536 31.2818 40.2839 30.7025 40.2839Z" fill="white"/>
			<path d="M32.9404 35.808H25.1074C24.5281 35.808 24.0583 36.2776 24.0583 36.8571C24.0583 37.4365 24.528 37.9062 25.1074 37.9062H32.9404C33.5197 37.9062 33.9895 37.4365 33.9895 36.8571C33.9895 36.2776 33.5199 35.808 32.9404 35.808Z" fill="white"/>
			<path d="M43.0115 15.666H25.1074C24.5281 15.666 24.0583 16.1357 24.0583 16.7151C24.0583 17.2946 24.528 17.7642 25.1074 17.7642H43.0114C43.5907 17.7642 44.0605 17.2946 44.0605 16.7151C44.0605 16.1357 43.5908 15.666 43.0115 15.666Z" fill="white"/>
			<path d="M38.5355 11.1899H25.1074C24.5281 11.1899 24.0583 11.6595 24.0583 12.239C24.0583 12.8184 24.528 13.2881 25.1074 13.2881H38.5355C39.1148 13.2881 39.5846 12.8184 39.5846 12.239C39.5846 11.6595 39.1149 11.1899 38.5355 11.1899Z" fill="white"/>
			<path d="M20.6316 38.0459C20.0523 38.0459 19.5825 38.5156 19.5825 39.095C19.5825 40.3676 18.5471 41.403 17.2745 41.403C16.0019 41.403 14.9665 40.3676 14.9665 39.095C14.9665 37.8224 16.0019 36.787 17.2745 36.787C17.8538 36.787 18.3236 36.3174 18.3236 35.7379C18.3236 35.1585 17.8539 34.6888 17.2745 34.6888C14.845 34.6888 12.8685 36.6655 12.8685 39.0949C12.8685 41.5243 14.8451 43.5009 17.2745 43.5009C19.7039 43.5009 21.6805 41.5243 21.6805 39.0949C21.6807 38.5156 21.2109 38.0459 20.6316 38.0459Z" fill="white"/>
			<path d="M47.4874 0H9.44148C7.62907 0 6.15442 1.47452 6.15442 3.28706V50.2849C6.15442 52.0975 7.62894 53.572 9.44148 53.572H28.4645C29.0438 53.572 29.5136 53.1023 29.5136 52.5229C29.5136 51.9436 29.0439 51.4738 28.4645 51.4738H9.44148C8.78587 51.4738 8.25249 50.9404 8.25249 50.2848V3.28706C8.25249 2.63145 8.78587 2.09807 9.44148 2.09807H47.4874C48.143 2.09807 48.6764 2.63145 48.6764 3.28706V37.9762C48.6764 38.5555 49.146 39.0253 49.7255 39.0253C50.3048 39.0253 50.7746 38.5556 50.7746 37.9762V3.28706C50.7744 1.47452 49.2999 0 47.4874 0Z" fill="white"/>
			<path d="M57.392 42.5417C56.417 42.4444 55.4425 42.7208 54.6712 43.3064C54.0568 42.2755 53.0092 41.5441 51.797 41.4227C50.8217 41.3256 49.8473 41.602 49.0762 42.1874C48.4618 41.1565 47.4141 40.4251 46.202 40.3037C45.4574 40.2294 44.7139 40.3728 44.0605 40.7053V27.3456C44.0605 26.2609 43.5991 25.2211 42.7941 24.4929C41.99 23.7653 40.9064 23.4101 39.8209 23.5187C37.8843 23.7127 36.3674 25.4637 36.3674 27.5052V40.8987L33.2836 43.9826C31.6448 45.6213 30.9833 47.9464 31.5142 50.2024L33.8554 60.1526C34.804 64.1845 38.3593 67.0004 42.5013 67.0004H51.9633C56.8609 67.0004 60.8454 63.0159 60.8454 58.1183V46.5284C60.8455 44.4866 59.3286 42.7356 57.392 42.5417ZM58.7474 58.118C58.7474 61.8586 55.7041 64.9019 51.9635 64.9019H42.5014C39.3379 64.9019 36.6223 62.7512 35.8977 59.6717L33.5565 49.7215C33.1933 48.178 33.6459 46.587 34.7671 45.4658L36.3674 43.8656V47.4875C36.3674 48.0668 36.837 48.5366 37.4165 48.5366C37.9959 48.5366 38.4656 48.0669 38.4656 47.4875V27.5051C38.4656 26.5282 39.1527 25.6941 40.0301 25.6065C40.5341 25.5558 41.016 25.7131 41.3866 26.0486C41.7526 26.3799 41.9625 26.8526 41.9625 27.3457V45.8092C41.9625 46.3885 42.4322 46.8583 43.0116 46.8583C43.5911 46.8583 44.0607 46.3887 44.0607 45.8092V44.1307C44.0607 43.6376 44.2705 43.1648 44.6367 42.8336C45.0075 42.4981 45.4892 42.3407 45.9931 42.3914C46.8704 42.4792 47.5577 43.3133 47.5577 44.2902V46.9279C47.5577 47.5073 48.0273 47.977 48.6068 47.977C49.1861 47.977 49.6559 47.5074 49.6559 46.9279V45.2494C49.6559 44.7563 49.8657 44.2835 50.2318 43.9523C50.6027 43.6168 51.0845 43.4595 51.5883 43.5101C52.4656 43.598 53.1529 44.4321 53.1529 45.4089V48.0468C53.1529 48.6261 53.6225 49.0959 54.202 49.0959C54.7813 49.0959 55.2511 48.6262 55.2511 48.0468V46.3682C55.2511 45.8752 55.4608 45.4024 55.827 45.0712C56.1978 44.7358 56.6793 44.5782 57.1835 44.6291C58.0607 44.7168 58.748 45.5509 58.748 46.5278V58.118H58.7474Z" fill="white"/>
		</g>
		<defs>
			<clipPath id="clip0">
			<rect width="67" height="67" fill="white"/>
			</clipPath>
		</defs>
	</symbol>
	<symbol id="q-medal" viewBox="0 0 71 79">
		<g>
			<path d="M44.5631 8.84671C36.7534 4.90038 27.3457 6.40927 21.1539 12.6013C13.9575 19.7975 13.2372 31.2721 19.4786 39.292C19.6992 39.5755 20.029 39.7239 20.3624 39.7239C20.6025 39.7239 20.8445 39.6469 21.0488 39.4878C21.5365 39.1083 21.6241 38.4054 21.2447 37.9177C15.6952 30.7869 16.3366 20.5834 22.7364 14.1835C28.2431 8.67656 36.6089 7.33449 43.5542 10.8439C44.1055 11.1229 44.7786 10.9013 45.0574 10.3498C45.336 9.79828 45.1149 9.12531 44.5631 8.84671Z" fill="white"/>
			<path d="M53.4979 17.7831C53.2192 17.2316 52.5465 17.0103 51.9946 17.2888C51.4431 17.5674 51.2216 18.2402 51.5002 18.792C55.0071 25.7361 53.6643 34.1008 48.1589 39.6061C41.7589 46.0058 31.5556 46.6471 24.4248 41.0978C23.9369 40.7184 23.2341 40.806 22.8546 41.2936C22.475 41.7813 22.5628 42.4843 23.0505 42.8638C26.7037 45.7069 31.0734 47.1052 35.4292 47.1052C40.6359 47.1052 45.823 45.1068 49.7414 41.1884C55.9319 34.998 57.4415 25.5922 53.4979 17.7831Z" fill="white"/>
			<path d="M50.607 13.5217C50.3298 13.208 50.0386 12.8982 49.7414 12.6012C49.4442 12.304 49.1346 12.0128 48.8209 11.7356C48.3579 11.3262 47.6507 11.37 47.2417 11.833C46.8322 12.2959 46.8758 13.003 47.3388 13.4122C47.6182 13.6591 47.8942 13.9187 48.159 14.1834C48.4236 14.4483 48.6832 14.7241 48.9302 15.0035C49.1512 15.2537 49.4594 15.3814 49.769 15.3814C50.0324 15.3814 50.2967 15.2889 50.5095 15.1009C50.9727 14.6918 51.0162 13.9847 50.607 13.5217Z" fill="white"/>
			<path d="M61.8569 28.9007C62.603 27.6766 62.603 26.1562 61.8566 24.9324L60.3846 22.5186C60.1908 22.2005 60.1157 21.8227 60.1737 21.455L60.6125 18.6672C60.8361 17.2465 60.2525 15.8386 59.0896 14.9926L56.8083 13.3332C56.5067 13.1137 56.2923 12.7935 56.2045 12.431L55.5401 9.68544C55.2029 8.29081 54.1269 7.21499 52.7324 6.87746L49.9867 6.21295C49.6242 6.12517 49.3037 5.91078 49.0845 5.60917L47.4249 3.32732C46.579 2.16441 45.1709 1.58046 43.7506 1.80428L40.9619 2.24304C40.5942 2.30087 40.2163 2.22598 39.8985 2.03212L37.4842 0.559698C36.2603 -0.186635 34.7399 -0.186497 33.5159 0.559698L31.1019 2.0317C30.7841 2.22571 30.4065 2.30031 30.0383 2.24262L27.2504 1.80386C25.8302 1.58033 24.4219 2.164 23.576 3.3269L21.9167 5.6082C21.6972 5.90981 21.3768 6.1242 21.0142 6.21198L18.2687 6.87635C16.8743 7.2136 15.7982 8.28956 15.4607 9.68405L14.7962 12.4298C14.7084 12.7922 14.4941 13.1127 14.1924 13.332L11.9105 14.9916C10.7476 15.8373 10.1641 17.2451 10.3875 18.6658L10.8263 21.4547C10.8841 21.8226 10.8092 22.2003 10.6153 22.5182L9.14305 24.9326C8.397 26.1565 8.397 27.6769 9.14319 28.9007L10.6152 31.3147C10.8091 31.6328 10.8841 32.0105 10.8261 32.3783L10.3874 35.1662C10.1637 36.5867 10.7473 37.9948 11.9103 38.8407L14.1915 40.5001C14.4932 40.7193 14.7075 41.0398 14.7953 41.4023L15.4597 44.1478C15.797 45.5424 16.8729 46.6183 18.2674 46.9558L19.4139 47.2333L11.6547 64.5415C11.4898 64.9094 11.5354 65.3373 11.7744 65.6621C12.0131 65.9869 12.4079 66.1581 12.8084 66.1102L19.0517 65.3637L22.6483 70.521C22.8588 70.8227 23.2023 70.9999 23.5658 70.9999C23.6006 70.9999 23.6358 70.9982 23.6708 70.995C24.0721 70.9573 24.4222 70.7065 24.5871 70.3388L32.5115 52.661L33.5157 53.2733C34.1276 53.6465 34.8136 53.833 35.4998 53.833C36.1859 53.833 36.8719 53.6463 37.4839 53.2733L38.5242 52.639L46.4586 70.3388C46.6235 70.7067 46.9735 70.9573 47.375 70.995C47.41 70.9984 47.4451 71 47.4799 71C47.8434 71 48.187 70.8228 48.3974 70.5212L51.994 65.3638L58.2373 66.1103C58.6375 66.1579 59.0326 65.987 59.2714 65.6623C59.5102 65.3375 59.5561 64.9095 59.391 64.5416L51.6278 47.2239L52.7312 46.9569C54.1255 46.6197 55.2016 45.5437 55.5391 44.1492L56.2037 41.4035C56.2914 41.041 56.5058 40.7205 56.8074 40.5013L59.0893 38.8417C60.2522 37.9959 60.8357 36.5881 60.6123 35.1674L60.1736 32.3786C60.1157 32.0107 60.1906 31.6329 60.3845 31.3151L61.8569 28.9007ZM23.3535 67.6203L20.5032 63.5331C20.2669 63.1942 19.8628 63.0128 19.4526 63.0621L14.5049 63.6537L21.5743 47.8835C21.7036 47.9785 21.8195 48.0924 21.915 48.224L23.5747 50.5058C23.7323 50.7225 23.9096 50.919 24.1027 51.0941L20.3817 59.3946C20.1291 59.9585 20.3812 60.6204 20.945 60.8732C21.0937 60.9399 21.2491 60.9714 21.4019 60.9714C21.8293 60.9714 22.2376 60.7251 22.4235 60.3099L26.1314 52.039C26.4962 52.089 26.8719 52.0882 27.2489 52.0288L30.0376 51.5901C30.2046 51.5639 30.3733 51.5662 30.5377 51.5934L23.3535 67.6203ZM56.541 63.6535L51.5932 63.0621C51.1826 63.0129 50.7789 63.1942 50.5426 63.5331L47.6924 67.6203L40.5051 51.5872C40.6559 51.5666 40.8097 51.5666 40.9618 51.5905L43.7495 52.0293C44.1418 52.091 44.5327 52.089 44.9114 52.0326L48.622 60.3102C48.8083 60.7255 49.2163 60.9717 49.6436 60.9717C49.7966 60.9717 49.952 60.9402 50.1006 60.8735C50.6644 60.6208 50.9166 59.9587 50.6638 59.3948L46.9287 51.0627C47.1088 50.8955 47.2754 50.7103 47.4239 50.5062L49.0833 48.2249C49.1878 48.0811 49.316 47.9578 49.4599 47.8581L56.541 63.6535ZM59.9461 27.7356L58.4739 30.15C58.0045 30.9202 57.8228 31.8351 57.963 32.7262L58.4018 35.5149C58.494 36.1014 58.253 36.6825 57.773 37.0317L55.491 38.6915C54.7606 39.2229 54.2412 39.999 54.0287 40.877L53.3642 43.6227C53.2248 44.1983 52.7808 44.6425 52.205 44.7818L49.4593 45.4462C48.5813 45.6587 47.805 46.1781 47.2736 46.9086L45.6142 49.1899C45.2651 49.6702 44.684 49.9109 44.0973 49.8185L41.3094 49.3798C40.4182 49.2396 39.5031 49.421 38.7328 49.8907L36.3189 51.3627C35.8137 51.6705 35.1858 51.6705 34.6809 51.3627L32.2665 49.8905C31.666 49.5243 30.9777 49.3335 30.2811 49.3335C30.0842 49.3335 29.8863 49.3487 29.6901 49.3796L26.9013 49.8184C26.3147 49.9108 25.7336 49.6696 25.3845 49.1897L23.7247 46.9078C23.1933 46.1774 22.4172 45.658 21.5392 45.4455L18.7935 44.781C18.2179 44.6416 17.7737 44.1976 17.6344 43.6218L16.97 40.8763C16.7575 39.9982 16.2382 39.2218 15.5075 38.6904L13.2264 37.0309C12.7463 36.6817 12.5054 36.1004 12.5978 35.514L13.0365 32.7261C13.1767 31.8348 12.9954 30.9199 12.5257 30.1496L11.0537 27.7354C10.7457 27.2302 10.7457 26.6025 11.0537 26.0974L12.526 23.683C12.9955 22.9128 13.177 21.9979 13.0368 21.1068L12.5981 18.3181C12.5059 17.7316 12.7469 17.1504 13.2268 16.8013L15.5088 15.1415C16.2392 14.6101 16.7586 13.834 16.9711 12.956L17.6356 10.2103C17.775 9.63468 18.219 9.19051 18.7948 9.05115L21.5405 8.38677C22.4186 8.17432 23.1948 7.65486 23.7261 6.92433L25.3854 4.64304C25.7346 4.16296 26.3157 3.9218 26.9024 4.0143L29.6902 4.45306C30.5816 4.59353 31.4967 4.41187 32.2669 3.94219L34.6808 2.47018C35.186 2.16233 35.8139 2.16233 36.3188 2.47018L38.7332 3.94233C39.5034 4.41215 40.4186 4.59367 41.3096 4.45333L44.0984 4.01458C44.6847 3.92264 45.266 4.16337 45.6152 4.64332L47.275 6.92517C47.8064 7.65555 48.5825 8.17502 49.4604 8.38746L52.2062 9.05198C52.7818 9.19135 53.226 9.63538 53.3653 10.2111L54.0297 12.9567C54.2421 13.8348 54.7615 14.6112 55.4921 15.1426L57.7734 16.802C58.2535 17.1511 58.4944 17.7324 58.402 18.3189L57.9633 21.1068C57.8231 21.998 58.0045 22.913 58.4741 23.6833L59.9461 26.0974C60.2543 26.6026 60.2543 27.2304 59.9461 27.7356Z" fill="white"/>
			<path d="M48.5929 23.4352C48.3464 22.6761 47.7008 22.1461 46.9082 22.0521L40.1755 21.2537L37.3358 15.0974C37.0015 14.3727 36.298 13.9224 35.4998 13.9224C34.7017 13.9224 33.9981 14.3727 33.6638 15.0974L30.824 21.2539L24.0914 22.0522C23.2987 22.1462 22.6531 22.6762 22.4066 23.4353C22.1601 24.194 22.3709 25.0023 22.9566 25.5441L27.9342 30.1473L26.613 36.7972C26.4575 37.5802 26.7621 38.3578 27.4078 38.8268C27.7641 39.0856 28.1775 39.2166 28.5935 39.2166C28.9317 39.2166 29.2715 39.1301 29.5836 38.9554L35.4996 35.644L41.4157 38.9554C42.1122 39.3453 42.9458 39.2961 43.5916 38.827C44.2374 38.3578 44.5419 37.58 44.3863 36.7972L43.065 30.1475L48.0427 25.5443C48.6287 25.0025 48.8395 24.1943 48.5929 23.4352ZM41.0861 28.9298C40.8004 29.194 40.6725 29.5877 40.7482 29.9693L42.1003 36.7741L36.0461 33.3853C35.8764 33.2903 35.6881 33.2428 35.4996 33.2428C35.3112 33.2428 35.123 33.2902 34.9531 33.3853L28.899 36.7741L30.251 29.9693C30.327 29.5875 30.199 29.194 29.9132 28.9298L24.8195 24.2191L31.7096 23.4022C32.0959 23.3564 32.4308 23.1131 32.5939 22.7599L35.4998 16.4598L38.4057 22.7599C38.5687 23.1131 38.9035 23.3564 39.29 23.4022L46.1798 24.2191L41.0861 28.9298Z" fill="white"/>
		</g>
	</symbol>
	<symbol id="q-invoice" viewBox="0 0 71 71">
		<path d="M49.1367 4.74327H40.5793C40.1142 3.36626 38.8109 2.37171 37.2789 2.37171H34.8456C33.747 0.894572 32.0073 0 30.164 0C28.3208 0 26.5809 0.894572 25.4825 2.37157H23.0492C21.5172 2.37157 20.2139 3.36612 19.7488 4.74313H11.191C8.61638 4.74313 6.52188 6.83777 6.52188 9.41222V59.216C6.52188 61.7905 8.61652 63.885 11.191 63.885H34.907C35.5209 63.885 36.0188 63.3873 36.0188 62.7733C36.0188 62.1594 35.5211 61.6616 34.907 61.6616H11.191C9.84238 61.6616 8.74521 60.5644 8.74521 59.2158V9.41235C8.74521 8.06377 9.84238 6.9666 11.191 6.9666H19.5659V10.5981C19.5659 11.212 20.0636 11.7099 20.6776 11.7099H39.6504C40.2643 11.7099 40.7622 11.2122 40.7622 10.5981V6.9666H49.1367C50.4853 6.9666 51.5825 8.06377 51.5825 9.41235V41.4291C51.5825 42.043 52.0802 42.5408 52.6942 42.5408C53.3081 42.5408 53.8059 42.0431 53.8059 41.4291V9.41235C53.8058 6.83777 51.7113 4.74327 49.1367 4.74327ZM38.5389 9.4864H21.7894V5.85916C21.7894 5.85764 21.7895 5.85639 21.7895 5.85487C21.7895 5.85417 21.7894 5.85334 21.7894 5.85279C21.7906 5.15887 22.3552 4.59489 23.0492 4.59489H26.0786C26.4744 4.59489 26.8404 4.38453 27.0395 4.04229C27.7025 2.90337 28.8705 2.22333 30.164 2.22333C31.4576 2.22333 32.6256 2.90337 33.2886 4.04229C33.4876 4.38439 33.8537 4.59489 34.2495 4.59489H37.2789C37.9721 4.59489 38.5362 5.15776 38.5387 5.85057C38.5387 5.85209 38.5386 5.85334 38.5386 5.85487C38.5386 5.85778 38.539 5.86055 38.539 5.86346V9.4864H38.5389Z" fill="white"/>
		<path d="M34.9068 56.9185H13.4885V11.7099H15.9346C16.5486 11.7099 17.0464 11.2122 17.0464 10.5981C17.0464 9.98408 16.5487 9.48639 15.9346 9.48639H12.3769C11.763 9.48639 11.2652 9.98408 11.2652 10.5981V58.0303C11.2652 58.6442 11.7628 59.142 12.3769 59.142H34.9069C35.5208 59.142 36.0186 58.6443 36.0186 58.0303C36.0185 57.4162 35.5208 56.9185 34.9068 56.9185Z" fill="white"/>
		<path d="M47.9509 9.48639H44.3936C43.7797 9.48639 43.2818 9.98408 43.2818 10.5981C43.2818 11.2122 43.7795 11.7099 44.3936 11.7099H46.8393V41.4288C46.8393 42.0427 47.337 42.5405 47.9511 42.5405C48.5651 42.5405 49.0628 42.0428 49.0628 41.4288V10.5981C49.0627 9.98422 48.5648 9.48639 47.9509 9.48639Z" fill="white"/>
		<path d="M51.5083 45.0605C44.3567 45.0605 38.5386 50.8787 38.5386 58.0302C38.5386 65.1818 44.3568 71 51.5083 71C58.6597 71 64.478 65.1818 64.478 58.0302C64.478 50.8787 58.6599 45.0605 51.5083 45.0605ZM51.5083 68.7766C45.5827 68.7766 40.7619 63.9558 40.7619 58.0302C40.7619 52.1047 45.5827 47.2839 51.5083 47.2839C57.4339 47.2839 62.2547 52.1047 62.2547 58.0302C62.2547 63.9558 57.434 68.7766 51.5083 68.7766Z" fill="white"/>
		<path d="M30.176 4.74329H30.164C29.5501 4.74329 29.0583 5.24098 29.0583 5.85502C29.0583 6.46892 29.5618 6.96675 30.1758 6.96675C30.7897 6.96675 31.2876 6.46906 31.2876 5.85502C31.2877 5.24098 30.79 4.74329 30.176 4.74329Z" fill="white"/>
		<path d="M58.2235 53.6868C57.7894 53.2527 57.0854 53.2527 56.6513 53.6868L49.1367 61.2015L45.1796 57.2443C44.7454 56.8101 44.0415 56.8101 43.6075 57.2443C43.1733 57.6785 43.1733 58.3824 43.6075 58.8165L48.3507 63.5597C48.5677 63.7767 48.8523 63.8853 49.1367 63.8853C49.4211 63.8853 49.7057 63.7769 49.9227 63.5597L58.2233 55.2591C58.6575 54.8248 58.6575 54.1209 58.2235 53.6868Z" fill="white"/>
		<path d="M25.3466 24.5877V20.1034C26.9129 20.3716 27.8664 21.1695 27.8664 21.752C27.8664 22.3659 28.3641 22.8638 28.9781 22.8638C29.5922 22.8638 30.0899 22.3661 30.0899 21.752C30.0899 19.7869 28.0802 18.1991 25.3466 17.8565V17.7128C25.3466 17.0989 24.8489 16.6011 24.2349 16.6011C23.6208 16.6011 23.1231 17.0988 23.1231 17.7128V17.8565C20.3895 18.199 18.3799 19.7868 18.3799 21.752C18.3799 24.5357 20.9909 25.6055 23.1231 26.2535V30.7378C21.5568 30.4696 20.6033 29.6717 20.6033 29.0892C20.6033 28.4753 20.1056 27.9774 19.4916 27.9774C18.8775 27.9774 18.3799 28.4751 18.3799 29.0892C18.3799 31.0543 20.3895 32.6421 23.1231 32.9847V33.1284C23.1231 33.7423 23.6208 34.2401 24.2349 34.2401C24.8489 34.2401 25.3466 33.7424 25.3466 33.1284V32.9847C28.0802 32.6422 30.0899 31.0544 30.0899 29.0892C30.0897 26.3056 27.4788 25.2358 25.3466 24.5877ZM23.1231 23.9085C21.2477 23.255 20.6033 22.6656 20.6033 21.752C20.6033 21.4005 20.9134 21.0122 21.4539 20.687C21.9107 20.4122 22.4902 20.2135 23.1231 20.1049V23.9085ZM27.0158 30.1542C26.559 30.429 25.9795 30.6277 25.3466 30.7363V26.9327C27.222 27.5862 27.8664 28.1756 27.8664 29.0892C27.8664 29.4408 27.5563 29.829 27.0158 30.1542Z" fill="white"/>
		<path d="M40.8361 18.9728H34.907C34.2931 18.9728 33.7953 19.4705 33.7953 20.0846C33.7953 20.6986 34.293 21.1963 34.907 21.1963H40.8361C41.45 21.1963 41.9478 20.6986 41.9478 20.0846C41.9478 19.4705 41.4501 18.9728 40.8361 18.9728Z" fill="white"/>
		<path d="M38.4645 23.7161H34.9072C34.2933 23.7161 33.7954 24.2138 33.7954 24.8278C33.7954 25.4418 34.2931 25.9395 34.9072 25.9395H38.4645C39.0784 25.9395 39.5763 25.4418 39.5763 24.8278C39.5763 24.2138 39.0784 23.7161 38.4645 23.7161Z" fill="white"/>
		<path d="M40.8361 28.4594H34.907C34.2931 28.4594 33.7953 28.957 33.7953 29.5711C33.7953 30.1851 34.293 30.6828 34.907 30.6828H40.8361C41.45 30.6828 41.9478 30.1851 41.9478 29.5711C41.9478 28.957 41.4501 28.4594 40.8361 28.4594Z" fill="white"/>
		<path d="M21.8633 39.1316H19.4917C18.8778 39.1316 18.38 39.6293 18.38 40.2433C18.38 40.8574 18.8777 41.355 19.4917 41.355H21.8633C22.4772 41.355 22.975 40.8574 22.975 40.2433C22.975 39.6293 22.4772 39.1316 21.8633 39.1316Z" fill="white"/>
		<path d="M21.8633 48.6179H19.4917C18.8778 48.6179 18.38 49.1156 18.38 49.7297C18.38 50.3437 18.8777 50.8414 19.4917 50.8414H21.8633C22.4772 50.8414 22.975 50.3437 22.975 49.7297C22.975 49.1156 22.4772 48.6179 21.8633 48.6179Z" fill="white"/>
		<path d="M21.8633 43.8748H19.4917C18.8778 43.8748 18.38 44.3724 18.38 44.9865C18.38 45.6005 18.8777 46.0982 19.4917 46.0982H21.8633C22.4772 46.0982 22.975 45.6005 22.975 44.9865C22.975 44.3724 22.4772 43.8748 21.8633 43.8748Z" fill="white"/>
		<path d="M40.8361 39.1316H26.6064C25.9925 39.1316 25.4947 39.6293 25.4947 40.2433C25.4947 40.8574 25.9924 41.355 26.6064 41.355H40.8361C41.45 41.355 41.9478 40.8574 41.9478 40.2433C41.9478 39.6293 41.4501 39.1316 40.8361 39.1316Z" fill="white"/>
		<path d="M37.2787 48.6179H26.6066C25.9927 48.6179 25.4948 49.1156 25.4948 49.7297C25.4948 50.3437 25.9925 50.8414 26.6066 50.8414H37.2787C37.8927 50.8414 38.3905 50.3437 38.3905 49.7297C38.3905 49.1156 37.8927 48.6179 37.2787 48.6179Z" fill="white"/>
		<path d="M40.8361 43.8748H26.6064C25.9925 43.8748 25.4947 44.3724 25.4947 44.9865C25.4947 45.6005 25.9924 46.0982 26.6064 46.0982H40.8361C41.45 46.0982 41.9478 45.6005 41.9478 44.9865C41.9478 44.3724 41.4501 43.8748 40.8361 43.8748Z" fill="white"/>
	</symbol>
	<symbol id="q-delivery" viewBox="0 0 71 71">
		<path d="M69.8453 33.7776C69.1071 32.8978 68.1002 32.3261 66.9459 32.1124L66.4037 24.7536C66.9386 24.7485 67.3947 24.3633 67.4879 23.8353L67.697 22.6496C67.9211 21.3785 67.6085 20.1238 66.8393 19.2073C66.071 18.2918 64.9463 17.7874 63.672 17.7874H55.5106L55.9079 15.5347C56.0207 14.8949 55.8573 14.256 55.4599 13.7823C55.0663 13.3133 54.4746 13.0443 53.8364 13.0443H13.6625C12.4745 13.0443 11.3809 13.9686 11.1728 15.1488L7.61849 35.3071C7.51199 35.9117 7.91567 36.4883 8.52028 36.5948C8.58545 36.6063 8.65035 36.6119 8.71456 36.6119C9.24387 36.6119 9.71299 36.2323 9.80798 35.693L13.3624 15.5347C13.3859 15.402 13.5567 15.2675 13.6624 15.2675L53.6972 15.2676L50.1637 35.3071C50.0571 35.9117 50.4608 36.4883 51.0655 36.5948C51.6694 36.7012 52.2467 36.2976 52.3532 35.693L52.6095 34.2399H65.9034C65.9038 34.2399 65.9044 34.2399 65.9049 34.2399C65.9055 34.2399 65.906 34.2399 65.9064 34.2399C66.8253 34.24 67.6192 34.5832 68.1421 35.2063C68.502 35.6352 68.7119 36.1691 68.7624 36.7597H65.0697C64.5301 36.7597 64.0686 37.147 63.9749 37.6784L63.5568 40.05C63.3883 41.0054 63.6263 41.9521 64.2095 42.6473C64.7847 43.333 65.6579 43.7262 66.6049 43.7262H67.6516L66.7891 48.6175H63.8541C63.6609 47.6392 63.2381 46.7394 62.5973 45.976C61.4603 44.6207 59.7871 43.8745 57.8864 43.8745C54.8385 43.8745 51.8979 45.8686 50.5214 48.6177H50.0744L51.517 40.4362C51.6235 39.8316 51.22 39.255 50.6152 39.1485C50.0109 39.0417 49.434 39.4455 49.3275 40.0502L47.8168 48.6178H27.2377C27.0445 47.6395 26.6217 46.7398 25.9809 45.9762C24.8438 44.621 23.1707 43.8748 21.2698 43.8748C18.2219 43.8748 15.2814 45.8689 13.9048 48.6179L7.52891 48.6178L7.97322 46.0981H12.9694C13.5833 46.0981 14.0812 45.6004 14.0812 44.9864C14.0812 44.3725 13.5835 43.8747 12.9694 43.8747H1.11173C0.497832 43.8747 0 44.3724 0 44.9864C0 45.6003 0.497693 46.0981 1.11173 46.0981H5.71578L5.31848 48.3509C5.20574 48.9907 5.3691 49.6296 5.76653 50.1033C6.16008 50.5722 6.75179 50.8413 7.38996 50.8413H13.1828C12.8815 52.7271 13.3344 54.5036 14.4681 55.8544C15.6052 57.2096 17.2782 57.9558 19.1792 57.9558C22.9627 57.9558 26.5824 54.8841 27.2482 51.1082C27.2639 51.0188 27.2762 50.9299 27.2887 50.8411H49.7994C49.498 52.7268 49.9509 54.5033 51.0846 55.8543C52.2217 57.2095 53.8948 57.9557 55.7957 57.9557C59.5793 57.9557 63.199 54.884 63.8648 51.1081C63.8804 51.0186 63.8928 50.9297 63.9053 50.841H67.7222C68.2618 50.841 68.7233 50.4537 68.817 49.9223L70.9079 38.0645C71.1916 36.4549 70.8143 34.9324 69.8453 33.7776ZM53.0018 32.017L54.2824 24.754H64.1747L64.7098 32.017H53.0018ZM65.5073 22.2636L65.4602 22.5307H54.6743L55.1186 20.0109H63.672C64.2776 20.0109 64.7976 20.2331 65.136 20.6365C65.4868 21.0544 65.6188 21.6321 65.5073 22.2636ZM25.0587 50.7224C24.5717 53.4852 21.934 55.7326 19.1792 55.7326C17.9469 55.7326 16.8786 55.2684 16.1712 54.4255C15.4435 53.5581 15.1661 52.3802 15.3904 51.1086C15.8775 48.3459 18.5151 46.0984 21.2699 46.0984C22.5021 46.0984 23.5705 46.5627 24.2778 47.4057C25.0056 48.2728 25.2829 49.4508 25.0587 50.7224ZM61.6752 50.7224C61.188 53.4852 58.5505 55.7326 55.7956 55.7326C54.5634 55.7326 53.495 55.2684 52.7877 54.4254C52.0599 53.558 51.7826 52.3801 52.0068 51.1085C52.4938 48.3457 55.1315 46.0983 57.8864 46.0983C59.1185 46.0983 60.1869 46.5625 60.8943 47.4055C61.622 48.2728 61.8994 49.4508 61.6752 50.7224ZM68.0437 41.5034H66.6049V41.5032C66.3083 41.5032 66.069 41.4048 65.9127 41.2187C65.7506 41.0254 65.6914 40.7476 65.7463 40.4366L66.0025 38.9837H68.488L68.0437 41.5034Z" fill="white"/>
		<path d="M22.0572 49.3559C21.6636 48.8869 21.0719 48.6179 20.4336 48.6179C19.2456 48.6179 18.152 49.5422 17.9439 50.7224C17.8311 51.3622 17.9945 52.0011 18.3919 52.4748C18.7855 52.9438 19.3772 53.2128 20.0154 53.2128C21.2034 53.2128 22.2969 52.2884 22.5051 51.1085C22.618 50.4685 22.4547 49.8298 22.0572 49.3559Z" fill="white"/>
		<path d="M58.6736 49.3559C58.2799 48.8869 57.6882 48.6179 57.0502 48.6179C55.8622 48.6179 54.7686 49.5422 54.5606 50.7223C54.4478 51.3622 54.6109 52.001 55.0085 52.4748C55.4021 52.9438 55.9938 53.2128 56.6319 53.2128C57.8199 53.2128 58.9135 52.2884 59.1217 51.1085C59.2345 50.4685 59.0712 49.8298 58.6736 49.3559Z" fill="white"/>
		<path d="M44.8429 43.8748H30.7562C30.1423 43.8748 29.6445 44.3724 29.6445 44.9865C29.6445 45.6004 30.1421 46.0982 30.7562 46.0982H44.8429C45.4568 46.0982 45.9546 45.6005 45.9546 44.9865C45.9545 44.3724 45.4568 43.8748 44.8429 43.8748Z" fill="white"/>
		<path d="M24.8273 39.1317H4.31963C3.70573 39.1317 3.2079 39.6294 3.2079 40.2434C3.2079 40.8573 3.70546 41.3552 4.31963 41.3552H24.8273C25.4412 41.3552 25.939 40.8575 25.939 40.2434C25.939 39.6294 25.4413 39.1317 24.8273 39.1317Z" fill="white"/>
		<path d="M46.0567 34.6591L41.9409 31.1018C41.4763 30.7004 40.7744 30.7513 40.3728 31.2159C39.9712 31.6804 40.0224 32.3824 40.4869 32.784L42.3435 34.3887H14.1552C13.5413 34.3887 13.0435 34.8864 13.0435 35.5004C13.0435 36.1143 13.5412 36.6122 14.1552 36.6122H41.6385L39.3455 38.1312C38.8335 38.4701 38.6936 39.16 39.0327 39.6718C39.2465 39.9948 39.6001 40.1697 39.9604 40.1697C40.1712 40.1697 40.3844 40.1098 40.5733 39.9845L45.9437 36.4272C46.2338 36.2353 46.417 35.9185 46.4391 35.5713C46.4613 35.2239 46.3199 34.8864 46.0567 34.6591Z" fill="white"/>
	</symbol>
	<symbol id="data" viewBox="0 0 17 17">
		<path d="M13.7461 4.93896C13.9294 4.93896 14.0781 4.79031 14.0781 4.60693V0.996094C14.0781 0.446848 13.6313 0 13.082 0H0.996094C0.446848 0 0 0.446848 0 0.996094V16.0039C0 16.5532 0.446848 17 0.996094 17H13.082C13.6313 17 14.0781 16.5532 14.0781 16.0039V13.5578C14.0781 13.3744 13.9294 13.2257 13.7461 13.2257C13.5627 13.2257 13.4141 13.3744 13.4141 13.5578V16.0039C13.4141 16.187 13.2651 16.3359 13.082 16.3359H0.996094C0.813012 16.3359 0.664062 16.187 0.664062 16.0039V0.996094C0.664062 0.813012 0.813012 0.664062 0.996094 0.664062H13.082C13.2651 0.664062 13.4141 0.813012 13.4141 0.996094V4.60693C13.4141 4.79031 13.5627 4.93896 13.7461 4.93896Z"/>
		<path d="M7.03906 1.79297C5.3547 1.79297 3.98438 3.16329 3.98438 4.84766C3.98438 5.72146 4.35326 6.51063 4.94335 7.06792C4.9544 7.07974 4.96616 7.09093 4.97901 7.10112C5.52257 7.59847 6.24597 7.90231 7.03902 7.90231C7.83208 7.90231 8.55547 7.59844 9.09904 7.10112C9.11189 7.09093 9.12364 7.0797 9.1347 7.06792C9.72485 6.51063 10.0937 5.72146 10.0937 4.84766C10.0937 3.16329 8.72341 1.79297 7.03906 1.79297ZM7.03906 7.23828C6.49688 7.23828 5.99651 7.05659 5.59502 6.75126C5.88684 6.23379 6.43141 5.91016 7.03906 5.91016C7.6467 5.91016 8.19127 6.23379 8.48309 6.75126C8.08156 7.05659 7.58123 7.23828 7.03906 7.23828ZM6.50781 4.71484V4.49902C6.50781 4.20611 6.74614 3.96777 7.03906 3.96777C7.33197 3.96777 7.5703 4.20611 7.5703 4.49902V4.71484C7.5703 5.00776 7.33197 5.24609 7.03906 5.24609C6.74614 5.24609 6.50781 5.00776 6.50781 4.71484ZM8.96284 6.26487C8.71797 5.90169 8.3786 5.61923 7.98458 5.44485C8.14096 5.24274 8.23437 4.98957 8.23437 4.71484V4.49902C8.23437 3.83991 7.69817 3.30371 7.03906 3.30371C6.37994 3.30371 5.84375 3.83991 5.84375 4.49902V4.71484C5.84375 4.98957 5.93715 5.24274 6.09353 5.44485C5.69951 5.61923 5.36014 5.90169 5.11527 6.26487C4.82212 5.86799 4.64844 5.37781 4.64844 4.84766C4.64844 3.52946 5.72086 2.45703 7.03906 2.45703C8.35725 2.45703 9.42967 3.52946 9.42967 4.84766C9.42967 5.37781 9.25599 5.86799 8.96284 6.26487Z"/>
		<path d="M8.83202 14.543H7.03906C6.85571 14.543 6.70703 14.6916 6.70703 14.875C6.70703 15.0584 6.85571 15.207 7.03906 15.207H8.83202C9.01537 15.207 9.16405 15.0584 9.16405 14.875C9.16405 14.6916 9.01537 14.543 8.83202 14.543Z"/>
		<path d="M8.83202 12.6836H4.11719C3.93384 12.6836 3.78516 12.8322 3.78516 13.0156C3.78516 13.199 3.93384 13.3477 4.11719 13.3477H8.83202C9.01537 13.3477 9.16405 13.199 9.16405 13.0156C9.16405 12.8322 9.01537 12.6836 8.83202 12.6836Z"/>
		<path d="M8.83202 10.8242H4.11719C3.93384 10.8242 3.78516 10.9729 3.78516 11.1562C3.78516 11.3396 3.93384 11.4883 4.11719 11.4883H8.83202C9.01537 11.4883 9.16405 11.3396 9.16405 11.1562C9.16405 10.9729 9.01537 10.8242 8.83202 10.8242Z"/>
		<path d="M2.93426 9.06213C2.87254 9.00037 2.78687 8.96484 2.69922 8.96484C2.61186 8.96484 2.5262 9.00037 2.46447 9.06213C2.40271 9.12389 2.36719 9.20955 2.36719 9.29688C2.36719 9.3842 2.40268 9.46986 2.46447 9.53162C2.52656 9.59338 2.61186 9.62891 2.69922 9.62891C2.78687 9.62891 2.87221 9.59338 2.93426 9.53162C2.99602 9.46986 3.03158 9.3842 3.03158 9.29688C3.03158 9.20955 2.99605 9.12389 2.93426 9.06213Z" />
		<path d="M2.93426 10.9215C2.87221 10.8597 2.78687 10.8242 2.69922 10.8242C2.61186 10.8242 2.52656 10.8597 2.46447 10.9215C2.40271 10.9833 2.36719 11.0689 2.36719 11.1562C2.36719 11.2436 2.40268 11.3292 2.46447 11.391C2.52656 11.4528 2.61186 11.4883 2.69922 11.4883C2.78687 11.4883 2.87221 11.4528 2.93426 11.391C2.99602 11.3292 3.03158 11.2436 3.03158 11.1562C3.03158 11.0689 2.99605 10.9833 2.93426 10.9215Z"/>
		<path d="M2.93426 12.7809C2.87221 12.7191 2.78687 12.6836 2.69922 12.6836C2.61186 12.6836 2.52656 12.7191 2.46447 12.7809C2.40271 12.8426 2.36719 12.9283 2.36719 13.0156C2.36719 13.1029 2.40268 13.1886 2.46447 13.2504C2.5262 13.3121 2.61186 13.3477 2.69922 13.3477C2.78687 13.3477 2.87254 13.3121 2.93426 13.2504C2.99602 13.1886 3.03158 13.1029 3.03158 13.0156C3.03158 12.9283 2.99605 12.8426 2.93426 12.7809Z"/>
		<path d="M8.83202 8.96484H4.11719C3.93384 8.96484 3.78516 9.11349 3.78516 9.29688C3.78516 9.48026 3.93384 9.62891 4.11719 9.62891H8.83202C9.01537 9.62891 9.16405 9.48026 9.16405 9.29688C9.16405 9.11349 9.01537 8.96484 8.83202 8.96484Z"/>
		<path d="M16.3008 4.32704C15.9782 4.14081 15.6025 4.09133 15.2426 4.18772C14.8828 4.28415 14.5821 4.51491 14.3959 4.83747L10.2175 12.0745C10.1946 12.1142 10.1802 12.1582 10.1751 12.2037L9.88096 14.8382C9.86635 14.9693 9.9307 15.0966 10.0449 15.1626C10.0965 15.1923 10.1538 15.2071 10.2109 15.2071C10.2804 15.2071 10.3496 15.1853 10.4078 15.1424L12.5423 13.5704C12.5791 13.5433 12.61 13.5088 12.6329 13.4691L16.8112 6.23204C17.1957 5.56612 16.9667 4.71154 16.3008 4.32704ZM10.6251 14.1576L10.7787 12.782L11.7397 13.3368L10.6251 14.1576ZM12.2238 12.8495L10.9586 12.119L14.3116 6.31146L15.5769 7.04193L12.2238 12.8495ZM16.2361 5.89997L15.9089 6.46685L14.6436 5.73638L14.9709 5.16951C15.0685 5.00054 15.226 4.87968 15.4145 4.82917C15.603 4.77864 15.7998 4.8046 15.9688 4.90215C16.1377 4.99971 16.2586 5.15722 16.3091 5.34568C16.3596 5.53414 16.3337 5.731 16.2361 5.89997Z"/>
	</symbol>
	<symbol id="my-order" viewBox="0 0 17 17">
		<path d="M13.0355 8.26525C12.9738 8.20346 12.8881 8.16797 12.8008 8.16797C12.7135 8.16797 12.6278 8.20346 12.566 8.26525C12.5043 8.32701 12.4688 8.41268 12.4688 8.5C12.4688 8.58732 12.5043 8.67299 12.566 8.73471C12.6278 8.79647 12.7135 8.83203 12.8008 8.83203C12.8881 8.83203 12.9738 8.7965 13.0355 8.73471C13.0973 8.67299 13.1328 8.58732 13.1328 8.5C13.1328 8.41268 13.0973 8.32701 13.0355 8.26525Z"/>
		<path d="M16.668 3.48676H14.4639V3.38672C14.4639 1.51928 12.9446 0 11.0772 0C10.549 0 10.0487 0.121623 9.60272 0.338207C9.1567 0.121623 8.65643 0 8.1282 0C6.26076 0 4.74149 1.51928 4.74149 3.38672V3.48676H2.12458C1.9412 3.48676 1.79255 3.63544 1.79255 3.81879V9.17426C1.67229 9.20457 1.57613 9.30059 1.54907 9.4263L0.00741726 16.5982C-0.0136667 16.6962 0.0107376 16.7986 0.0737571 16.8766C0.136777 16.9546 0.231738 17 0.332044 17H14.1319C14.2259 17 14.3106 16.9608 14.371 16.898L15.3997 15.8692L16.4328 16.9023C16.495 16.9645 16.5799 16.9995 16.668 16.9995C16.8514 16.9995 17 16.8509 17 16.6675V3.81879C17 3.63541 16.8514 3.48676 16.668 3.48676ZM9.60272 1.09972C10.3529 1.58508 10.8509 2.42861 10.8509 3.38672V3.48676H8.35455V3.38672C8.35455 2.42858 8.85246 1.58508 9.60272 1.09972ZM8.1282 0.664062C8.40223 0.664062 8.66679 0.705168 8.91645 0.780838C8.16795 1.40257 7.69049 2.33989 7.69049 3.38672V3.48676H5.40558V3.38672H5.40555C5.40555 1.88544 6.62693 0.664062 8.1282 0.664062ZM2.12458 16.3359H0.743033L2.14191 9.82812H3.30426V9.99414C3.30426 10.1775 3.45291 10.3262 3.63629 10.3262C3.81967 10.3262 3.96832 10.1775 3.96832 9.99414V9.82812H7.48725V9.99414C7.48725 10.1775 7.6359 10.3262 7.81928 10.3262C8.00266 10.3262 8.15131 10.1775 8.15131 9.99414V9.82812H9.31366L10.7125 16.3359H2.12458ZM3.96835 9.16406V8.76406C3.96835 7.79387 4.75766 7.0046 5.72782 7.0046C6.69798 7.0046 7.48728 7.79387 7.48728 8.76406V9.16406H3.96835ZM11.3918 16.3359L9.90656 9.4263C9.87366 9.27333 9.73842 9.16406 9.58194 9.16406H8.15135V8.76406C8.15135 7.42774 7.06414 6.34054 5.72782 6.34054C4.39149 6.34054 3.30429 7.42774 3.30429 8.76406V9.16406H2.45661V4.15082H4.74152V4.68835C4.74152 4.8717 4.89017 5.02038 5.07355 5.02038C5.25693 5.02038 5.40558 4.8717 5.40558 4.68835V4.15082H10.8509V4.68835C10.8509 4.8717 10.9995 5.02038 11.1829 5.02038C11.3663 5.02038 11.515 4.8717 11.515 4.68835V4.15082H12.4702V7.25717C12.4702 7.44052 12.6189 7.58921 12.8022 7.58921C12.9856 7.58921 13.1343 7.44052 13.1343 7.25717V4.15082H13.7999V16.3359H11.3918ZM13.7999 3.48676H11.515V3.38672C11.515 2.33989 11.0375 1.40257 10.289 0.780838C10.5386 0.705168 10.8031 0.664062 11.0772 0.664062C12.5785 0.664062 13.7999 1.88544 13.7999 3.38672V3.48676ZM16.336 15.8664L15.726 15.2564C15.7296 15.2368 15.7317 15.2167 15.7317 15.196V11.5468C15.7317 11.3634 15.5831 11.2148 15.3997 11.2148C15.2163 11.2148 15.0677 11.3634 15.0677 11.5468V15.1961C15.0677 15.2167 15.0698 15.2368 15.0734 15.2564L14.4639 15.8659V4.15082H16.336V15.8664Z"/>
		<path d="M6.65941 11.3483C6.49974 11.2582 6.2972 11.3145 6.20705 11.4742L4.24999 14.9409C4.15984 15.1006 4.21619 15.3031 4.37589 15.3933C4.42749 15.4224 4.4835 15.4362 4.53882 15.4362C4.6547 15.4362 4.76723 15.3755 4.82825 15.2674L6.78532 11.8007C6.8755 11.641 6.81912 11.4384 6.65941 11.3483Z"/>
		<path d="M7.07031 13.6571C6.52107 13.6571 6.07422 14.104 6.07422 14.6532C6.07422 15.2024 6.52107 15.6493 7.07031 15.6493C7.61956 15.6493 8.06641 15.2024 8.06641 14.6532C8.06641 14.104 7.61956 13.6571 7.07031 13.6571ZM7.07031 14.9852C6.88723 14.9852 6.73828 14.8363 6.73828 14.6532C6.73828 14.4701 6.88723 14.3212 7.07031 14.3212C7.25339 14.3212 7.40234 14.4701 7.40234 14.6532C7.40234 14.8363 7.25343 14.9852 7.07031 14.9852Z"/>
		<path d="M4.39063 10.719C3.84138 10.719 3.39453 11.1658 3.39453 11.7151C3.39453 12.2643 3.84138 12.7112 4.39063 12.7112C4.93988 12.7112 5.38673 12.2643 5.38673 11.7151C5.38673 11.1658 4.93988 10.719 4.39063 10.719ZM4.39063 12.0471C4.20755 12.0471 4.0586 11.8981 4.0586 11.7151C4.0586 11.532 4.20755 11.383 4.39063 11.383C4.57371 11.383 4.72266 11.532 4.72266 11.7151C4.72266 11.8981 4.57371 12.0471 4.39063 12.0471Z"/>
		<path d="M15.6332 10.0692C15.5714 10.0075 15.4858 9.97192 15.3984 9.97192C15.3111 9.97192 15.2254 10.0074 15.1637 10.0692C15.1019 10.131 15.0664 10.2166 15.0664 10.304C15.0664 10.3913 15.1019 10.4769 15.1637 10.5387C15.2254 10.6004 15.3111 10.636 15.3984 10.636C15.4858 10.636 15.5714 10.6005 15.6332 10.5387C15.6953 10.4769 15.7305 10.3913 15.7305 10.304C15.7305 10.2166 15.6953 10.131 15.6332 10.0692Z"/>
	</symbol>
	<symbol id="change-password" viewBox="0 0 14 18">
		<path d="M11.875 7.53824V4.87498C11.875 2.187 9.68804 0 7.00002 0C4.31201 0 2.12501 2.187 2.12501 4.87501V7.53827C1.27001 7.71226 0.625 8.47051 0.625 9.37501V16.125C0.625035 17.1585 1.46576 18 2.50002 18H11.5C12.5343 18 13.375 17.1585 13.375 16.125V9.37501C13.375 8.46974 12.73 7.71226 11.875 7.53824ZM2.87504 4.87501C2.87504 2.60026 4.72605 0.750023 7.00002 0.750023C9.274 0.750023 11.125 2.60026 11.125 4.87501V7.50002H10.375V4.87501C10.375 3.01426 8.86077 1.50001 7.00002 1.50001C5.13927 1.50001 3.62502 3.01426 3.62502 4.87501V7.50002H2.87504V4.87501ZM9.62503 4.87501V7.50002H4.37501V4.87501C4.37501 3.42749 5.55254 2.25 7.00002 2.25C8.44751 2.25 9.62503 3.42749 9.62503 4.87501ZM12.625 16.125C12.625 16.7453 12.1203 17.25 11.5 17.25H2.50002C1.87976 17.25 1.37502 16.7453 1.37502 16.125V9.37501C1.37502 8.75475 1.87976 8.25001 2.50002 8.25001H11.5C12.1203 8.25001 12.625 8.75475 12.625 9.37501V16.125Z"/>
		<path d="M7 9.74998C5.96573 9.74998 5.125 10.5915 5.125 11.625C5.125 12.3375 5.54125 12.9847 6.16827 13.2982L5.87875 15.3225C5.863 15.4298 5.89524 15.5392 5.9665 15.621C6.03777 15.7027 6.14127 15.75 6.25001 15.75H7.75002C7.85876 15.75 7.96226 15.702 8.03352 15.6202C8.10479 15.5385 8.13703 15.4297 8.12128 15.3217L7.83176 13.2975C8.45878 12.9847 8.87503 12.3374 8.87503 11.625C8.87499 10.5915 8.03426 9.74998 7 9.74998ZM7.31349 12.6983C7.135 12.7507 7.02172 12.927 7.04798 13.1115L7.31799 15H6.68197L6.95197 13.1115C6.97897 12.927 6.86496 12.7508 6.68647 12.6983C6.20124 12.5565 5.87499 12.1252 5.87499 11.625C5.87499 11.0047 6.37973 10.5 7 10.5C7.62026 10.5 8.125 11.0047 8.125 11.625C8.125 12.1252 7.79875 12.5565 7.31349 12.6983Z"/>
	</symbol>
	<symbol id="exit" viewBox="0 0 17 17">
		<path d="M12.3984 9.20832C12.2029 9.20832 12.0443 9.367 12.0443 9.5625V13.1042C12.0443 13.69 11.5676 14.1667 10.9818 14.1667H7.79426V3.25407C7.79426 2.64137 7.43019 2.08957 6.86706 1.84875L4.20656 0.708322H10.9818C11.5676 0.708322 12.0443 1.18502 12.0443 1.77082V5.3125C12.0443 5.508 12.2029 5.66668 12.3984 5.66668C12.5939 5.66668 12.7526 5.508 12.7526 5.3125V1.77082C12.7526 0.79475 11.9579 0 10.9818 0H2.48179C2.45347 0 2.42797 0.00992773 2.40104 0.0163027C2.34792 0.010625 2.29479 0 2.24024 0C1.39731 0 0.710938 0.686375 0.710938 1.5293V13.7459C0.710938 14.3586 1.07501 14.9104 1.63813 15.1512L5.66146 16.8761C5.85271 16.9582 6.05601 17 6.26496 17C7.10788 17 7.79426 16.3136 7.79426 15.4707V14.875H10.9818C11.9579 14.875 12.7526 14.0802 12.7526 13.1042V9.5625C12.7526 9.367 12.5939 9.20832 12.3984 9.20832ZM7.08594 15.4707C7.08594 15.9233 6.71762 16.2916 6.26499 16.2916C6.15306 16.2916 6.04399 16.2697 5.94129 16.2258L1.91724 14.501C1.61479 14.3714 1.41929 14.0746 1.41929 13.7459V1.5293C1.41929 1.07668 1.78762 0.708355 2.24024 0.708355C2.35217 0.708355 2.46124 0.730303 2.56394 0.774928L6.58799 2.499C6.89044 2.62862 7.08594 2.92543 7.08594 3.25407V15.4707Z"/>
		<path d="M6.02605 7.79168C5.83055 7.79168 5.67188 7.95036 5.67188 8.14586V9.5625C5.67188 9.758 5.83055 9.91668 6.02605 9.91668C6.22155 9.91668 6.38023 9.758 6.38023 9.5625V8.14582C6.38023 7.95032 6.22155 7.79168 6.02605 7.79168Z"/>
		<path d="M16.2726 7.34402C16.269 7.33127 16.2697 7.31709 16.2647 7.30434C16.2463 7.25829 16.2187 7.21791 16.1833 7.18391L14.0626 5.06316C13.9244 4.92503 13.6999 4.92503 13.5617 5.06316C13.4236 5.20128 13.4236 5.42584 13.5617 5.56396L15.0811 7.08334H8.85418C8.65868 7.08334 8.5 7.24202 8.5 7.43752C8.5 7.63302 8.65868 7.7917 8.85418 7.7917H15.0826L13.5617 9.31251C13.4236 9.45063 13.4236 9.67518 13.5617 9.81331C13.6312 9.88201 13.7218 9.91674 13.8125 9.91674C13.9032 9.91674 13.9938 9.88204 14.0626 9.81404L16.1876 7.68903C16.1975 7.67911 16.201 7.66636 16.2095 7.65646C16.2301 7.63096 16.2513 7.60476 16.2641 7.57359C16.2768 7.54314 16.2796 7.51053 16.2832 7.47866C16.2853 7.46448 16.2917 7.45173 16.2917 7.43759C16.2917 7.40422 16.2811 7.37447 16.2726 7.34402Z"/>
	</symbol>
	<symbol id="thank-you" viewBox="0 0 125 125">
		<path d="M122.559 25.6379H106.352V24.9023C106.352 11.1711 95.1812 0 81.45 0C77.5663 0 73.8876 0.894287 70.6083 2.48682C67.3287 0.894287 63.6502 0 59.7662 0C46.035 0 34.8639 11.1711 34.8639 24.9023V25.6379H15.6219C14.2735 25.6379 13.1805 26.7312 13.1805 28.0793V67.4578C12.2962 67.6807 11.5892 68.3867 11.3902 69.311L0.0545386 122.045C-0.100491 122.766 0.0789527 123.519 0.542332 124.093C1.00571 124.667 1.70395 125 2.4415 125H103.911C104.602 125 105.225 124.711 105.669 124.25L113.233 116.686L120.829 124.281C121.287 124.739 121.911 124.997 122.559 124.997C123.907 124.997 125 123.903 125 122.555V28.0793C125 26.731 123.907 25.6379 122.559 25.6379ZM70.6083 8.08618C76.1246 11.655 79.786 17.8574 79.786 24.9023V25.6379H61.4305V24.9023C61.4305 17.8572 65.0917 11.655 70.6083 8.08618ZM59.7662 4.88281C61.7811 4.88281 63.7264 5.18506 65.5621 5.74146C60.0584 10.313 56.5477 17.2051 56.5477 24.9023V25.6379H39.7469V24.9023H39.7467C39.7467 13.8635 48.7274 4.88281 59.7662 4.88281ZM15.6219 120.117H5.46347L15.7494 72.2656H24.296V73.4863C24.296 74.8345 25.389 75.9277 26.7374 75.9277C28.0858 75.9277 29.1788 74.8345 29.1788 73.4863V72.2656H55.0533V73.4863C55.0533 74.8345 56.1463 75.9277 57.4947 75.9277C58.8431 75.9277 59.9361 74.8345 59.9361 73.4863V72.2656H68.4828L78.7686 120.117H15.6219ZM29.1791 67.3828V64.4417C29.1791 57.3079 34.9828 51.5044 42.1163 51.5044C49.2499 51.5044 55.0536 57.3079 55.0536 64.4417V67.3828H29.1791ZM83.7635 120.117L72.8424 69.311C72.6004 68.1863 71.606 67.3828 70.4554 67.3828H59.9364V64.4417C59.9364 54.6157 51.9422 46.6216 42.1163 46.6216C32.2904 46.6216 24.2962 54.6157 24.2962 64.4417V67.3828H18.0633V30.5208H34.8641V34.4731C34.8641 35.8213 35.9571 36.9146 37.3055 36.9146C38.6539 36.9146 39.7469 35.8213 39.7469 34.4731V30.5208H79.786V34.4731C79.786 35.8213 80.879 36.9146 82.2274 36.9146C83.5758 36.9146 84.6688 35.8213 84.6688 34.4731V30.5208H91.6927V53.3616C91.6927 54.7097 92.7857 55.803 94.1341 55.803C95.4825 55.803 96.5755 54.7097 96.5755 53.3616V30.5208H101.47V120.117H83.7635ZM101.47 25.6379H84.6688V24.9023C84.6688 17.2051 81.1581 10.313 75.6542 5.74146C77.4898 5.18506 79.4349 4.88281 81.45 4.88281C92.4889 4.88281 101.47 13.8635 101.47 24.9023V25.6379ZM120.117 116.665L115.632 112.179C115.659 112.035 115.674 111.887 115.674 111.736V84.9028C115.674 83.5547 114.581 82.4614 113.233 82.4614C111.885 82.4614 110.792 83.5547 110.792 84.9028V111.736C110.792 111.888 110.807 112.036 110.834 112.18L106.352 116.661V30.5208H120.117V116.665Z" fill="#3C70BE"/>
	</symbol>
	<symbol id="close" viewBox="0 0 20 20">
		<path d="M11.7688 10.0008L19.6335 2.13605C20.1222 1.64783 20.1222 0.85569 19.6335 0.367478C19.1449 -0.12115 18.3536 -0.12115 17.865 0.367478L10.0002 8.23223L2.13504 0.367478C1.64641 -0.12115 0.8551 -0.12115 0.366471 0.367478C-0.122157 0.85569 -0.122157 1.64783 0.366471 2.13605L8.23164 10.0008L0.366471 17.8655C-0.122157 18.3538 -0.122157 19.1459 0.366471 19.6341C0.610786 19.878 0.930979 20.0002 1.25076 20.0002C1.57053 20.0002 1.89073 19.878 2.13504 19.6337L10.0002 11.7689L17.865 19.6337C18.1093 19.878 18.4295 20.0002 18.7492 20.0002C19.069 20.0002 19.3892 19.878 19.6335 19.6337C20.1222 19.1455 20.1222 18.3533 19.6335 17.8651L11.7688 10.0008Z" fill="#2D2D2D"/>
	</symbol>
	<symbol id="f-arrow-right" viewBox="0 0 16 10">
		<path d="M0.692633 5.69258L13.6354 5.69257L10.5471 8.78111C10.2765 9.0515 10.2765 9.49014 10.5471 9.7605C10.8176 10.0311 11.2562 10.0311 11.5264 9.7605L15.7971 5.48974C16.0676 5.21934 16.0676 4.78066 15.7971 4.51035L11.5264 0.239388C11.3912 0.104069 11.2139 0.0365109 11.0367 0.0365109C10.8595 0.0365109 10.6823 0.104069 10.5471 0.239388C10.2765 0.509785 10.2765 0.948422 10.5471 1.21874L13.6354 4.30743L0.692633 4.30743C0.310156 4.30743 -4.67351e-07 4.61755 -4.33913e-07 5.00002C-4.00476e-07 5.3825 0.310116 5.69258 0.692633 5.69258Z"/>
	</symbol>
	<symbol id="filter" viewBox="0 0 18 18">
		<path d="M7 15H11V13H7V15ZM0 3V5H18V3H0ZM3 10H15V8H3V10Z" fill="#2D2D2D"/>
	</symbol>
	<symbol id="fb" viewBox="0 0 12 20">
		<path d="M10.9995 0.00416134L8.40595 0C5.49222 0 3.60923 1.9319 3.60923 4.92203V7.19141H1.00156C0.776223 7.19141 0.59375 7.37409 0.59375 7.59943V10.8875C0.59375 11.1128 0.776431 11.2953 1.00156 11.2953H3.60923V19.5922C3.60923 19.8175 3.7917 20 4.01704 20H7.41931C7.64464 20 7.82712 19.8173 7.82712 19.5922V11.2953H10.8761C11.1014 11.2953 11.2839 11.1128 11.2839 10.8875L11.2852 7.59943C11.2852 7.49123 11.2421 7.38762 11.1657 7.31105C11.0894 7.23448 10.9853 7.19141 10.8771 7.19141H7.82712V5.26763C7.82712 4.34298 8.04746 3.87358 9.25194 3.87358L10.9991 3.87295C11.2242 3.87295 11.4067 3.69027 11.4067 3.46514V0.411972C11.4067 0.187052 11.2244 0.00457747 10.9995 0.00416134Z" fill="white"/>
	</symbol>
	<symbol id="afterCall" viewBox="0 0 129 129">
		<path d="M41.3368 82.1685L24.1216 64.953C23.1375 63.9694 21.5426 63.9694 20.5582 64.953C19.5743 65.9369 19.5743 67.5323 20.5582 68.5164L37.7737 85.7319C38.2657 86.2237 38.9105 86.4698 39.5552 86.4698C40.2 86.4698 40.8447 86.2237 41.3368 85.7319C42.3207 84.748 42.3207 83.1526 41.3368 82.1685Z" fill="#3C70BE"/>
		<path d="M50.4409 91.2761L50.2857 91.1206C49.3015 90.137 47.7067 90.137 46.7223 91.1206C45.7384 92.1045 45.7384 93.6998 46.7223 94.684L46.8777 94.8394C47.3698 95.3312 48.0146 95.5774 48.6593 95.5774C49.3041 95.5774 49.9488 95.3312 50.4409 94.8394C51.4247 93.8556 51.4247 92.2602 50.4409 91.2761Z" fill="#3C70BE"/>
		<path d="M4.30059 111.091C3.83221 110.623 3.18217 110.353 2.51953 110.353C1.85689 110.353 1.20686 110.622 0.738223 111.091C0.26959 111.56 0 112.21 0 112.872C0 113.535 0.269338 114.185 0.738223 114.654C1.20686 115.122 1.85689 115.392 2.51953 115.392C3.18217 115.392 3.83221 115.122 4.30059 114.654C4.76947 114.185 5.03906 113.538 5.03906 112.872C5.03906 112.21 4.76947 111.56 4.30059 111.091Z" fill="#3C70BE"/>
		<path d="M115.009 111.447L101.466 97.9042C101.624 97.2685 101.729 96.6162 101.768 95.9526C101.953 92.8757 100.809 89.8614 98.6296 87.682L82.8357 71.888C80.7992 69.8515 78.0914 68.73 75.2111 68.73C72.3305 68.73 69.6228 69.8515 67.5863 71.888L62.4479 77.0264C61.0078 78.4668 58.6646 78.4663 57.2252 77.0264L38.3536 58.1551C37.6562 57.4574 37.272 56.5302 37.272 55.5438C37.272 54.5572 37.6562 53.6297 38.3539 52.9323L43.4922 47.794C47.6963 43.5897 47.6963 36.7491 43.4922 32.5448L27.7114 16.764C25.532 14.5848 22.5186 13.4447 19.4408 13.6251C16.3642 13.8098 13.5083 15.3062 11.6053 17.7305L8.21602 22.0472C-3.8034 37.3581 -2.4877 59.2836 11.2762 73.0475L42.3458 104.117C49.8117 111.583 59.6757 115.386 69.5857 115.385C77.9461 115.385 86.3401 112.677 93.3462 107.177L97.6631 103.788C98.1424 103.412 98.5838 102.997 98.9877 102.552L111.446 115.011C112.997 116.562 113.422 118.698 112.583 120.724C111.743 122.751 109.932 123.961 107.739 123.961H39.0526C36.6903 123.961 34.7684 122.039 34.7684 119.677C34.7684 114.536 30.5859 110.354 25.4451 110.354H12.7225C11.3312 110.354 10.2029 111.482 10.2029 112.873C10.2029 114.265 11.3312 115.393 12.7225 115.393H25.4451C27.8074 115.393 29.7293 117.315 29.7293 119.677C29.7293 124.818 33.9117 129 39.0526 129H107.739C111.976 129 115.617 126.568 117.238 122.653C118.86 118.738 118.006 114.444 115.009 111.447ZM15.569 20.8418C16.5975 19.5314 18.08 18.7549 19.7426 18.6549C19.8631 18.6478 19.9827 18.6443 20.1022 18.6443C21.63 18.6443 23.0556 19.2344 24.1483 20.3271L39.9291 36.1077C42.1687 38.3475 42.1687 41.9915 39.9291 44.2306L36.5464 47.6133L13.0205 24.0875L15.569 20.8418ZM45.9092 100.554L14.8394 69.4841C3.76955 58.4143 1.96582 41.2712 10.0356 28.2293L33.2506 51.4445C32.5859 52.6917 32.2329 54.0906 32.2329 55.5438C32.2329 57.8764 33.1412 60.0692 34.7905 61.7184L53.6618 80.5897C56.4376 83.3655 60.6326 83.8775 63.9329 82.1269L87.1638 105.358C74.1219 113.428 56.979 111.624 45.9092 100.554ZM96.7387 95.6507C96.6387 97.3134 95.8619 98.7959 94.5515 99.8243L91.3056 102.373L67.7672 78.8341L71.1499 75.4514C73.3897 73.2115 77.0335 73.212 79.2726 75.4514L95.0665 91.2453C96.2447 92.4232 96.8383 93.9878 96.7387 95.6507Z" fill="#3C70BE"/>
		<path d="M115.143 0H73.3184C65.6774 0 59.4609 6.21644 59.4609 13.8574V45.6035C59.4609 53.2445 65.6774 59.4609 73.3184 59.4609H74.0742V62.1064C74.0742 62.9797 74.5265 63.7908 75.269 64.2498C75.6736 64.4997 76.1332 64.626 76.594 64.626C76.9787 64.626 77.365 64.5378 77.7205 64.3599L87.5184 59.4609H115.143C122.784 59.4609 129 53.2445 129 45.6035V13.8574C129 6.21644 122.784 0 115.143 0ZM123.961 45.6035C123.961 50.466 120.005 54.4219 115.143 54.4219H86.9238C86.5325 54.4219 86.1468 54.5128 85.7971 54.6879L79.1133 58.0296V56.9414C79.1133 55.5501 77.985 54.4219 76.5938 54.4219H73.3184C68.4559 54.4219 64.5 50.466 64.5 45.6035V13.8574C64.5 8.99498 68.4559 5.03906 73.3184 5.03906H115.143C120.005 5.03906 123.961 8.99498 123.961 13.8574V45.6035Z" fill="#3C70BE"/>
		<path d="M84.6275 19.52L84.4275 15.48C84.7208 15.4267 85.2542 15.3333 86.0275 15.2C86.8275 15.04 87.3875 14.9467 87.7075 14.92C88.0275 14.8667 88.5342 14.8 89.2275 14.72C89.9208 14.64 90.6408 14.5867 91.3875 14.56C92.1608 14.5333 93.0542 14.52 94.0675 14.52C96.9475 14.52 99.0942 15.0267 100.508 16.04C101.921 17.0533 102.628 18.6133 102.628 20.72C102.628 21.7867 102.388 22.7867 101.908 23.72C101.454 24.6267 100.894 25.4267 100.228 26.12C99.5608 26.8133 98.8808 27.52 98.1875 28.24C97.4942 28.96 96.8808 29.84 96.3475 30.88C95.8142 31.8933 95.5075 33.0133 95.4275 34.24H90.6275C90.5742 32.64 90.8275 31.16 91.3875 29.8C91.9475 28.44 92.5742 27.3733 93.2675 26.6C93.9875 25.8267 94.6675 25.0133 95.3075 24.16C95.9475 23.3067 96.2942 22.5467 96.3475 21.88C96.4275 21 96.1742 20.36 95.5875 19.96C95.0008 19.5333 94.0275 19.32 92.6675 19.32C90.3208 19.32 87.6408 19.3867 84.6275 19.52ZM92.3075 36.96H93.7075C94.4808 36.96 95.0142 37.1067 95.3075 37.4C95.6275 37.6933 95.7875 38.2267 95.7875 39V40.92C95.7875 41.6933 95.6275 42.24 95.3075 42.56C95.0142 42.8533 94.4808 43 93.7075 43H92.3075C91.5342 43 90.9875 42.8533 90.6675 42.56C90.3742 42.24 90.2275 41.6933 90.2275 40.92V39C90.2275 38.2267 90.3742 37.6933 90.6675 37.4C90.9875 37.1067 91.5342 36.96 92.3075 36.96Z" fill="#3C70BE"/>
	</symbol>
	<symbol id="delete" viewBox="0 0 23 23">
		<path d="M7.75379 2.09091C7.75379 1.40527 8.28887 0.904176 8.97451 0.904176H13.9927C14.6781 0.904176 15.2132 1.40527 15.2132 2.09091V3.39066H16.1174V2.09091C16.1174 0.906825 15.1768 0 13.9927 0H8.97451C7.79043 0 6.84961 0.906825 6.84961 2.09091V3.39066H7.75379V2.09091Z" fill="#ED1C28"/>
		<path d="M6.13773 23H16.8296C17.8605 23 18.6604 22.0932 18.6604 20.9656V7.00737H4.30664V20.9656C4.30664 22.0932 5.10663 23 6.13773 23ZM14.3656 9.16605C14.3656 8.91639 14.568 8.71396 14.8177 8.71396C15.0674 8.71396 15.2698 8.91639 15.2698 9.16605V19.8466C15.2698 20.0963 15.0674 20.2987 14.8177 20.2987C14.568 20.2987 14.3656 20.0963 14.3656 19.8466V9.16605ZM11.0315 9.16605C11.0315 8.91639 11.2339 8.71396 11.4835 8.71396C11.7332 8.71396 11.9356 8.91639 11.9356 9.16605V19.8466C11.9356 20.0963 11.7332 20.2987 11.4835 20.2987C11.2339 20.2987 11.0315 20.0963 11.0315 19.8466V9.16605ZM7.6973 9.16605C7.6973 8.91639 7.89973 8.71396 8.14939 8.71396C8.39906 8.71396 8.60148 8.91639 8.60148 9.16605V19.8466C8.60148 20.0963 8.39906 20.2987 8.14939 20.2987C7.89973 20.2987 7.6973 20.0963 7.6973 19.8466V9.16605Z" fill="#ED1C28"/>
		<path d="M3.84311 6.1032H19.1236C19.7479 6.1032 20.2538 5.59725 20.2538 4.97298C20.2538 4.34871 19.7479 3.84276 19.1236 3.84276H3.84311C3.21884 3.84276 2.71289 4.34871 2.71289 4.97298C2.71289 5.59725 3.21884 6.1032 3.84311 6.1032Z" fill="#ED1C28"/>
	</symbol>
	<symbol id="" ></symbol>
	<symbol id="" ></symbol>
	<symbol id="" ></symbol>
	<symbol id="" ></symbol>
	<symbol id="" ></symbol>
	<symbol id="" ></symbol>
	<symbol id="" ></symbol>
	<symbol id="" ></symbol>
	<symbol id="" ></symbol>
	<symbol id="" ></symbol>
	<symbol id="" ></symbol>
	<symbol id="" ></symbol>
	<symbol id="" ></symbol>
	<symbol id="" ></symbol>
	<symbol id="" ></symbol>
	<symbol id="" ></symbol>
	<symbol id="" ></symbol>
	<symbol id="" ></symbol>
	<symbol idd ></symbol>
</svg>