<svg width="655" height="655" viewBox="0 0 655 655" fill="none" xmlns="http://www.w3.org/2000/svg">
<path d="M550.069 206.849H355.616C352.033 206.849 348.597 205.426 346.064 202.892C343.53 200.359 342.107 196.923 342.107 193.34C342.107 189.757 343.53 186.321 346.064 183.787C348.597 181.254 352.033 179.83 355.616 179.83H384.158C393.453 179.826 402.366 176.13 408.938 169.556C415.509 162.982 419.2 154.067 419.2 144.771C419.2 135.473 415.507 126.556 408.932 119.981C402.357 113.406 393.44 109.712 384.141 109.712H145.328C136.03 109.712 127.113 113.406 120.538 119.981C113.963 126.556 110.27 135.473 110.27 144.771C110.27 154.07 113.963 162.987 120.538 169.562C127.113 176.137 136.03 179.83 145.328 179.83H246.198C249.781 179.83 253.217 181.254 255.751 183.787C258.284 186.321 259.708 189.757 259.708 193.34C259.708 196.923 258.284 200.359 255.751 202.892C253.217 205.426 249.781 206.849 246.198 206.849H218.754C207.571 206.849 196.846 211.291 188.938 219.199C181.031 227.107 176.588 237.832 176.588 249.015C176.588 260.198 181.031 270.923 188.938 278.83C196.846 286.738 207.571 291.18 218.754 291.18H396.374C399.952 291.111 403.412 292.466 405.991 294.947C408.571 297.428 410.059 300.833 410.129 304.411C410.198 307.99 408.843 311.449 406.362 314.029C403.88 316.609 400.476 318.097 396.898 318.166H115.673C105.554 318.166 95.8497 322.186 88.6945 329.341C81.5393 336.496 77.5195 346.201 77.5195 356.32C77.5195 366.439 81.5393 376.144 88.6945 383.299C95.8497 390.454 105.554 394.474 115.673 394.474H198.989C202.416 394.442 205.727 395.715 208.249 398.035C210.772 400.355 212.317 403.547 212.571 406.965C212.826 410.383 211.77 413.769 209.618 416.437C207.467 419.104 204.381 420.853 200.987 421.329H187.445C177.324 421.329 167.617 425.349 160.46 432.506C153.304 439.663 149.283 449.369 149.283 459.491C149.283 469.612 153.304 479.318 160.46 486.475C167.617 493.632 177.324 497.653 187.445 497.653H455.012C465.134 497.653 474.84 493.632 481.997 486.475C489.154 479.318 493.174 469.612 493.174 459.491C493.174 449.369 489.154 439.663 481.997 432.506C474.84 425.349 465.134 421.329 455.012 421.329H431.76C428.366 420.853 425.28 419.104 423.129 416.437C420.977 413.769 419.921 410.383 420.175 406.965C420.43 403.547 421.975 400.355 424.497 398.035C427.02 395.715 430.331 394.442 433.758 394.474H516.795C526.914 394.474 536.619 390.454 543.774 383.299C550.929 376.144 554.949 366.439 554.949 356.32C554.949 346.201 550.929 336.496 543.774 329.341C536.619 322.186 526.914 318.166 516.795 318.166H505.333C501.754 318.097 498.35 316.609 495.869 314.029C493.387 311.449 492.032 307.99 492.102 304.411C492.171 300.833 493.659 297.428 496.239 294.947C498.819 292.466 502.278 291.111 505.857 291.18H550.069C561.252 291.18 571.977 286.738 579.885 278.83C587.792 270.923 592.235 260.198 592.235 249.015C592.235 237.832 587.792 227.107 579.885 219.199C571.977 211.291 561.252 206.849 550.069 206.849ZM337.849 407.999C337.851 411.227 336.695 414.349 334.592 416.797C332.489 419.246 329.578 420.859 326.387 421.345H306.409C303.015 420.87 299.929 419.121 297.778 416.453C295.626 413.786 294.571 410.399 294.825 406.982C295.079 403.564 296.624 400.371 299.147 398.051C301.669 395.731 304.98 394.458 308.407 394.49H324.34C327.923 394.49 331.359 395.913 333.892 398.447C336.426 400.98 337.849 404.417 337.849 407.999Z" fill="#F5F5F5"/>
<path d="M462.595 503.531H207.145C200.362 503.531 194.863 509.03 194.863 515.812C194.863 522.595 200.362 528.094 207.145 528.094H462.595C469.377 528.094 474.876 522.595 474.876 515.812C474.876 509.03 469.377 503.531 462.595 503.531Z" fill="#F5F5F5"/>
<path d="M163.898 503.531H134.145C127.362 503.531 121.863 509.03 121.863 515.812C121.863 522.595 127.362 528.094 134.145 528.094H163.898C170.681 528.094 176.179 522.595 176.179 515.812C176.179 509.03 170.681 503.531 163.898 503.531Z" fill="#F5F5F5"/>
<path d="M500.061 528.094H500.945C497.688 528.094 494.564 526.8 492.261 524.497C489.958 522.193 488.664 519.07 488.664 515.812C488.664 512.555 489.958 509.432 492.261 507.128C494.564 504.825 497.688 503.531 500.945 503.531H500.061C503.318 503.531 506.442 504.825 508.745 507.128C511.048 509.432 512.342 512.555 512.342 515.812C512.342 519.07 511.048 522.193 508.745 524.497C506.442 526.8 503.318 528.094 500.061 528.094Z" fill="#F5F5F5"/>
<path d="M322.097 332.642L308.768 332.56L308.621 355.993L276.329 355.78L276.477 332.347L228.203 332.036L228.35 308.014L279.113 234.719L309.341 234.916L308.866 308.128L322.196 308.21L322.097 332.642ZM276.624 307.85L276.722 293.767C276.722 291.115 276.842 287.54 277.082 283.042C277.13 280.677 277.3 278.316 277.59 275.968H276.739C274.898 280.091 272.741 284.066 270.287 287.856L256.663 307.85H276.624Z" fill="#BF1919"/>
<path opacity="0.1" d="M308.768 332.56L322.097 332.642L322.261 308.21L308.932 308.128L309.079 284.139C307.561 285.427 306.153 286.84 304.871 288.364C296.935 297.829 292.137 313.292 290.477 334.754C289.903 341.778 289.903 348.837 290.477 355.861L308.67 355.976L308.768 332.56Z" fill="black"/>
<path d="M385.582 341.517C383.934 362.87 379.147 378.241 371.221 387.629C363.296 397.017 351.959 401.138 337.21 399.992C322.789 398.9 312.32 392.896 305.803 381.98C299.286 371.063 296.819 355.354 298.401 334.852C300.061 313.379 304.859 297.916 312.795 288.462C320.732 279.008 332.074 274.849 346.822 275.984C361.189 277.076 371.641 283.129 378.18 294.144C384.72 305.159 387.187 320.95 385.582 341.517ZM330.775 337.325C329.683 350.982 329.809 360.436 331.151 365.686C332.494 370.937 335.158 373.716 339.142 374.021C343.214 374.338 346.293 371.92 348.378 366.767C350.463 361.615 352.051 352.346 353.143 338.962C354.18 325.59 354.055 316.152 352.766 310.65C351.478 305.148 348.826 302.244 344.808 301.939C340.791 301.633 337.729 303.996 335.622 309.029C333.515 314.062 331.899 323.494 330.775 337.325Z" fill="#BF1919"/>
<path opacity="0.1" d="M378.163 294.046C376.157 290.627 373.607 287.557 370.614 284.958L357.203 311.027L360.249 334.852L386.089 331.577C386.252 315.759 383.611 303.249 378.163 294.046Z" fill="black"/>
<path d="M459.108 317.675L445.877 319.313L448.792 342.565L416.746 346.593L413.831 323.341L365.934 329.35L362.938 305.525L403.728 226.204L433.727 222.438L442.831 295.077L456.062 293.44L459.108 317.675ZM410.785 299.122L409.033 285.154C408.706 282.523 408.356 278.965 407.985 274.478C407.723 272.123 407.58 269.757 407.559 267.387L406.659 267.502C405.35 271.831 403.707 276.052 401.746 280.127L390.922 301.595L410.785 299.122Z" fill="#BF1919"/>
<path d="M450.592 423.818H237.979L213.188 255.614H481.656L450.592 423.818ZM248.345 411.799H440.604L467.213 267.699H227.106L248.345 411.799Z" fill="#DADADA"/>
<path d="M466 305.164H228.562V311.715H466V305.164Z" fill="#DADADA"/>
<path d="M456.177 368.126H238.422V374.676H456.177V368.126Z" fill="#DADADA"/>
<path d="M350.554 261.623H344.004V417.808H350.554V261.623Z" fill="#DADADA"/>
<path d="M273.784 261.28L267.27 261.956L283.492 418.136L290.007 417.459L273.784 261.28Z" fill="#DADADA"/>
<path d="M420.783 261.207L401.578 417.395L408.079 418.194L427.284 262.007L420.783 261.207Z" fill="#DADADA"/>
<path d="M215.954 271.678L187.249 243.169H149.324V222.733H195.682L230.348 257.186L215.954 271.678Z" fill="#DADADA"/>
<path d="M436.801 480.377H242.348C232.099 480.377 222.269 476.305 215.022 469.058C207.775 461.811 203.703 451.981 203.703 441.732C203.703 431.483 207.775 421.653 215.022 414.406C222.269 407.159 232.099 403.087 242.348 403.087H243.134V423.507H242.348C237.611 423.649 233.116 425.63 229.815 429.031C226.515 432.432 224.669 436.985 224.669 441.724C224.669 446.463 226.515 451.016 229.815 454.417C233.116 457.817 237.611 459.799 242.348 459.941H436.801V480.377Z" fill="#DADADA"/>
<path d="M173.575 243.169H136.715C134.078 243.063 131.584 241.941 129.756 240.038C127.927 238.135 126.906 235.598 126.906 232.959C126.906 230.32 127.927 227.783 129.756 225.88C131.584 223.977 134.078 222.855 136.715 222.749H173.575C176.212 222.855 178.706 223.977 180.535 225.88C182.363 227.783 183.384 230.32 183.384 232.959C183.384 235.598 182.363 238.135 180.535 240.038C178.706 241.941 176.212 243.063 173.575 243.169Z" fill="#BF1919"/>
<path d="M432.793 515.812C452.806 515.812 469.03 499.588 469.03 479.575C469.03 459.561 452.806 443.337 432.793 443.337C412.779 443.337 396.555 459.561 396.555 479.575C396.555 499.588 412.779 515.812 432.793 515.812Z" fill="black"/>
<path d="M432.792 497.8C442.857 497.8 451.017 489.64 451.017 479.575C451.017 469.509 442.857 461.349 432.792 461.349C422.726 461.349 414.566 469.509 414.566 479.575C414.566 489.64 422.726 497.8 432.792 497.8Z" fill="white"/>
<path d="M242.726 515.812C262.74 515.812 278.964 499.588 278.964 479.575C278.964 459.561 262.74 443.337 242.726 443.337C222.713 443.337 206.488 459.561 206.488 479.575C206.488 499.588 222.713 515.812 242.726 515.812Z" fill="black"/>
<path d="M242.725 497.8C252.791 497.8 260.951 489.64 260.951 479.575C260.951 469.509 252.791 461.349 242.725 461.349C232.66 461.349 224.5 469.509 224.5 479.575C224.5 489.64 232.66 497.8 242.725 497.8Z" fill="white"/>
<path d="M243.056 165.093C245.615 165.093 247.69 163.018 247.69 160.459C247.69 157.899 245.615 155.824 243.056 155.824C240.497 155.824 238.422 157.899 238.422 160.459C238.422 163.018 240.497 165.093 243.056 165.093Z" fill="#BF1919"/>
<path d="M360.755 244.282C363.92 244.282 366.486 241.716 366.486 238.551C366.486 235.386 363.92 232.82 360.755 232.82C357.589 232.82 355.023 235.386 355.023 238.551C355.023 241.716 357.589 244.282 360.755 244.282Z" fill="#BF1919"/>
<path d="M511.312 215.855C513.799 215.855 515.815 213.839 515.815 211.352C515.815 208.865 513.799 206.849 511.312 206.849C508.825 206.849 506.809 208.865 506.809 211.352C506.809 213.839 508.825 215.855 511.312 215.855Z" fill="#BF1919"/>
<path d="M255.597 355.452C258.084 355.452 260.1 353.436 260.1 350.949C260.1 348.462 258.084 346.446 255.597 346.446C253.11 346.446 251.094 348.462 251.094 350.949C251.094 353.436 253.11 355.452 255.597 355.452Z" fill="#BF1919"/>
<path d="M358.925 105.324C361.412 105.324 363.428 103.308 363.428 100.821C363.428 98.3339 361.412 96.3177 358.925 96.3177C356.438 96.3177 354.422 98.3339 354.422 100.821C354.422 103.308 356.438 105.324 358.925 105.324Z" fill="#BF1919"/>
<path d="M549.12 295.683C551.607 295.683 553.623 293.667 553.623 291.18C553.623 288.693 551.607 286.677 549.12 286.677C546.633 286.677 544.617 288.693 544.617 291.18C544.617 293.667 546.633 295.683 549.12 295.683Z" fill="#BF1919"/>
<path d="M372.023 454.799C374.51 454.799 376.526 452.783 376.526 450.296C376.526 447.809 374.51 445.793 372.023 445.793C369.536 445.793 367.52 447.809 367.52 450.296C367.52 452.783 369.536 454.799 372.023 454.799Z" fill="#BF1919"/>
<path d="M120.636 188.837C123.123 188.837 125.139 186.82 125.139 184.333C125.139 181.846 123.123 179.83 120.636 179.83C118.149 179.83 116.133 181.846 116.133 184.333C116.133 186.82 118.149 188.837 120.636 188.837Z" fill="#BF1919"/>
<path d="M173.279 279.734C176.733 279.734 179.534 276.934 179.534 273.479C179.534 270.024 176.733 267.224 173.279 267.224C169.824 267.224 167.023 270.024 167.023 273.479C167.023 276.934 169.824 279.734 173.279 279.734Z" fill="#BF1919"/>
<path d="M386.958 130.984C388.613 130.984 389.954 129.642 389.954 127.987C389.954 126.332 388.613 124.99 386.958 124.99C385.303 124.99 383.961 126.332 383.961 127.987C383.961 129.642 385.303 130.984 386.958 130.984Z" fill="#BF1919"/>
<path d="M238.418 247.279C240.073 247.279 241.415 245.937 241.415 244.282C241.415 242.627 240.073 241.286 238.418 241.286C236.764 241.286 235.422 242.627 235.422 244.282C235.422 245.937 236.764 247.279 238.418 247.279Z" fill="#BF1919"/>
<path d="M495.999 315.743C498.016 315.743 499.651 314.108 499.651 312.091C499.651 310.074 498.016 308.44 495.999 308.44C493.983 308.44 492.348 310.074 492.348 312.091C492.348 314.108 493.983 315.743 495.999 315.743Z" fill="#BF1919"/>
<path d="M310.534 442.485C312.551 442.485 314.186 440.85 314.186 438.834C314.186 436.817 312.551 435.182 310.534 435.182C308.518 435.182 306.883 436.817 306.883 438.834C306.883 440.85 308.518 442.485 310.534 442.485Z" fill="#BF1919"/>
<path d="M259.84 110.662H257.629V108.452C257.658 108.096 257.612 107.738 257.495 107.4C257.379 107.063 257.193 106.753 256.951 106.491C256.709 106.228 256.415 106.019 256.088 105.876C255.761 105.733 255.407 105.659 255.05 105.659C254.693 105.659 254.34 105.733 254.013 105.876C253.686 106.019 253.392 106.228 253.149 106.491C252.907 106.753 252.722 107.063 252.605 107.4C252.488 107.738 252.443 108.096 252.471 108.452V110.662H250.261C249.612 110.714 249.007 111.008 248.565 111.486C248.124 111.964 247.879 112.591 247.879 113.241C247.879 113.892 248.124 114.519 248.565 114.997C249.007 115.475 249.612 115.769 250.261 115.82H252.471V118.031C252.523 118.68 252.817 119.285 253.295 119.726C253.773 120.167 254.4 120.413 255.05 120.413C255.701 120.413 256.327 120.167 256.805 119.726C257.283 119.285 257.578 118.68 257.629 118.031V115.82H259.84C260.196 115.849 260.554 115.803 260.891 115.686C261.229 115.57 261.538 115.384 261.801 115.142C262.063 114.9 262.273 114.606 262.416 114.279C262.559 113.952 262.633 113.598 262.633 113.241C262.633 112.884 262.559 112.531 262.416 112.204C262.273 111.877 262.063 111.583 261.801 111.341C261.538 111.098 261.229 110.913 260.891 110.796C260.554 110.679 260.196 110.634 259.84 110.662Z" fill="#BF1919"/>
<path d="M489.762 368.814H487.551V366.603C487.579 366.248 487.534 365.89 487.417 365.552C487.3 365.215 487.115 364.905 486.873 364.643C486.631 364.38 486.337 364.171 486.01 364.028C485.682 363.884 485.329 363.811 484.972 363.811C484.615 363.811 484.262 363.884 483.935 364.028C483.607 364.171 483.314 364.38 483.071 364.643C482.829 364.905 482.644 365.215 482.527 365.552C482.41 365.89 482.365 366.248 482.393 366.603V368.814H480.182C479.534 368.866 478.929 369.16 478.487 369.638C478.046 370.116 477.801 370.743 477.801 371.393C477.801 372.044 478.046 372.67 478.487 373.148C478.929 373.626 479.534 373.921 480.182 373.972H482.393V376.183C482.445 376.831 482.739 377.437 483.217 377.878C483.695 378.319 484.322 378.564 484.972 378.564C485.623 378.564 486.249 378.319 486.727 377.878C487.205 377.437 487.499 376.831 487.551 376.183V373.972H489.762C490.118 374.001 490.476 373.955 490.813 373.838C491.151 373.722 491.46 373.536 491.723 373.294C491.985 373.052 492.194 372.758 492.338 372.431C492.481 372.104 492.555 371.75 492.555 371.393C492.555 371.036 492.481 370.683 492.338 370.356C492.194 370.029 491.985 369.735 491.723 369.492C491.46 369.25 491.151 369.065 490.813 368.948C490.476 368.831 490.118 368.786 489.762 368.814Z" fill="#BF1919"/>
<path d="M497.129 157.871H494.918V155.677C494.867 155.029 494.572 154.423 494.094 153.982C493.617 153.541 492.99 153.296 492.339 153.296C491.689 153.296 491.062 153.541 490.584 153.982C490.106 154.423 489.812 155.029 489.76 155.677V157.888H487.55C486.901 157.939 486.296 158.234 485.854 158.712C485.413 159.19 485.168 159.816 485.168 160.467C485.168 161.117 485.413 161.744 485.854 162.222C486.296 162.7 486.901 162.994 487.55 163.046H489.76V165.256C489.732 165.612 489.777 165.97 489.894 166.308C490.011 166.645 490.196 166.955 490.438 167.217C490.681 167.48 490.975 167.689 491.302 167.832C491.629 167.975 491.982 168.049 492.339 168.049C492.696 168.049 493.05 167.975 493.377 167.832C493.704 167.689 493.998 167.48 494.24 167.217C494.482 166.955 494.668 166.645 494.784 166.308C494.901 165.97 494.947 165.612 494.918 165.256V163.046H497.129C497.485 163.074 497.843 163.029 498.18 162.912C498.518 162.795 498.827 162.61 499.09 162.368C499.352 162.125 499.562 161.831 499.705 161.504C499.848 161.177 499.922 160.824 499.922 160.467C499.922 160.11 499.848 159.756 499.705 159.429C499.562 159.102 499.352 158.808 499.09 158.566C498.827 158.324 498.518 158.138 498.18 158.022C497.843 157.905 497.485 157.859 497.129 157.888V157.871Z" fill="#BF1919"/>
<path d="M195.551 329.76H193.34V327.5C193.369 327.144 193.323 326.786 193.206 326.449C193.089 326.111 192.904 325.801 192.662 325.539C192.42 325.277 192.126 325.067 191.799 324.924C191.471 324.781 191.118 324.707 190.761 324.707C190.404 324.707 190.051 324.781 189.724 324.924C189.397 325.067 189.103 325.277 188.86 325.539C188.618 325.801 188.433 326.111 188.316 326.449C188.199 326.786 188.154 327.144 188.182 327.5V329.711H185.971C185.323 329.762 184.718 330.056 184.276 330.534C183.835 331.012 183.59 331.639 183.59 332.29C183.59 332.94 183.835 333.567 184.276 334.045C184.718 334.523 185.323 334.817 185.971 334.869H188.182V337.079C188.234 337.728 188.528 338.333 189.006 338.774C189.484 339.216 190.111 339.461 190.761 339.461C191.412 339.461 192.038 339.216 192.516 338.774C192.994 338.333 193.288 337.728 193.34 337.079V334.869H195.551C195.907 334.897 196.265 334.852 196.602 334.735C196.94 334.618 197.249 334.433 197.512 334.19C197.774 333.948 197.983 333.654 198.127 333.327C198.27 333 198.344 332.647 198.344 332.29C198.344 331.933 198.27 331.579 198.127 331.252C197.983 330.925 197.774 330.631 197.512 330.389C197.249 330.147 196.94 329.961 196.602 329.845C196.265 329.728 195.907 329.682 195.551 329.711V329.76Z" fill="#BF1919"/>
<path d="M190.869 185.152C189.915 185.151 188.982 184.872 188.184 184.35L173.217 174.525C172.229 173.77 171.563 172.669 171.355 171.443C171.146 170.217 171.41 168.958 172.094 167.919C172.777 166.881 173.829 166.14 175.038 165.846C176.246 165.553 177.521 165.728 178.605 166.337L193.571 176.162C194.457 176.742 195.132 177.593 195.495 178.587C195.858 179.582 195.89 180.667 195.587 181.682C195.283 182.696 194.66 183.585 193.81 184.216C192.959 184.848 191.928 185.187 190.869 185.185V185.152Z" fill="black"/>
<path d="M449.524 142.315C448.624 142.315 447.741 142.067 446.972 141.599C446.203 141.132 445.578 140.461 445.164 139.662C444.75 138.863 444.563 137.965 444.625 137.067C444.686 136.169 444.993 135.305 445.512 134.57L458.776 115.739C459.525 114.672 460.667 113.947 461.951 113.723C463.235 113.499 464.555 113.794 465.621 114.543C466.687 115.292 467.412 116.434 467.636 117.718C467.86 119.002 467.565 120.322 466.816 121.388L453.585 140.219C453.129 140.871 452.521 141.403 451.813 141.768C451.106 142.133 450.32 142.321 449.524 142.315Z" fill="black"/>
<path d="M538.737 243.463C537.542 243.468 536.387 243.037 535.487 242.252C534.586 241.466 534.004 240.379 533.847 239.195C533.69 238.01 533.971 236.81 534.636 235.817C535.301 234.824 536.305 234.108 537.46 233.802L558.207 228.202C558.837 228.009 559.5 227.944 560.155 228.013C560.811 228.081 561.447 228.281 562.024 228.6C562.6 228.919 563.107 229.351 563.514 229.87C563.92 230.389 564.218 230.984 564.39 231.621C564.561 232.257 564.603 232.922 564.512 233.575C564.421 234.228 564.2 234.856 563.862 235.422C563.523 235.987 563.074 236.479 562.541 236.868C562.009 237.256 561.403 237.534 560.761 237.683L540.014 243.283C539.598 243.399 539.169 243.46 538.737 243.463Z" fill="black"/>
<path d="M508.114 424.358C507.079 424.358 506.071 424.032 505.232 423.425L488.317 411.144C487.262 410.377 486.554 409.223 486.35 407.934C486.146 406.646 486.461 405.33 487.228 404.274C487.994 403.219 489.149 402.511 490.437 402.307C491.725 402.103 493.042 402.419 494.097 403.185L511.013 415.467C511.855 416.076 512.482 416.937 512.803 417.926C513.125 418.915 513.125 419.98 512.803 420.968C512.48 421.957 511.853 422.817 511.01 423.427C510.168 424.036 509.154 424.362 508.114 424.358Z" fill="black"/>
<path d="M162.111 399.403C161.07 399.404 160.056 399.075 159.214 398.462C158.372 397.85 157.746 396.986 157.427 395.994C157.109 395.003 157.113 393.937 157.44 392.948C157.767 391.959 158.399 391.1 159.246 390.495L176.652 378.066C177.177 377.681 177.772 377.404 178.404 377.251C179.036 377.099 179.692 377.073 180.334 377.175C180.976 377.278 181.592 377.507 182.144 377.849C182.697 378.191 183.177 378.64 183.555 379.169C183.933 379.697 184.203 380.296 184.348 380.93C184.493 381.564 184.511 382.22 184.4 382.861C184.29 383.502 184.053 384.114 183.704 384.663C183.355 385.211 182.901 385.685 182.367 386.057L164.961 398.486C164.129 399.08 163.133 399.401 162.111 399.403Z" fill="black"/>
<path d="M318.627 132.9C317.504 132.898 316.415 132.513 315.542 131.806C314.669 131.1 314.065 130.116 313.829 129.019L307.967 101.869C307.83 101.238 307.819 100.586 307.935 99.9505C308.05 99.3152 308.289 98.7088 308.639 98.1659C308.989 97.6231 309.442 97.1544 309.973 96.7868C310.504 96.4191 311.102 96.1596 311.733 96.023C312.364 95.8864 313.016 95.8756 313.651 95.9909C314.287 96.1063 314.893 96.3457 315.436 96.6954C315.979 97.0451 316.447 97.4984 316.815 98.0292C317.183 98.56 317.442 99.1581 317.579 99.7893L323.441 126.939C323.595 127.656 323.587 128.399 323.416 129.113C323.245 129.826 322.917 130.492 322.456 131.062C321.994 131.633 321.41 132.092 320.748 132.407C320.085 132.722 319.36 132.885 318.627 132.883V132.9Z" fill="black"/>
<path d="M110.255 308.112C109.083 308.11 107.95 307.689 107.061 306.924C106.173 306.16 105.586 305.104 105.409 303.945C105.231 302.787 105.473 301.603 106.091 300.607C106.71 299.612 107.664 298.87 108.781 298.516L129.528 291.966C130.731 291.689 131.994 291.874 133.066 292.486C134.138 293.097 134.941 294.09 135.315 295.266C135.688 296.443 135.605 297.717 135.082 298.835C134.559 299.953 133.634 300.833 132.492 301.3L111.745 307.85C111.265 308.014 110.762 308.102 110.255 308.112Z" fill="black"/>
<path d="M550.756 340.862C550.442 340.859 550.129 340.826 549.822 340.764L531.269 337.161C530.007 336.897 528.899 336.147 528.185 335.072C527.471 333.998 527.208 332.686 527.453 331.419C527.698 330.153 528.431 329.034 529.495 328.304C530.558 327.573 531.866 327.291 533.136 327.516L551.689 331.119C552.897 331.342 553.978 332.01 554.718 332.991C555.458 333.972 555.804 335.195 555.687 336.418C555.57 337.641 554.998 338.776 554.085 339.599C553.172 340.422 551.984 340.872 550.756 340.862Z" fill="black"/>
<path d="M259.461 219.605C255.476 220.792 251.183 220.351 247.524 218.377C245.83 217.273 244.384 215.83 243.276 214.139C242.169 212.448 241.424 210.546 241.088 208.552C239.997 203.738 240.357 199.764 242.169 196.631C243.226 194.976 244.619 193.563 246.258 192.482C247.897 191.402 249.746 190.678 251.683 190.359C255.257 189.284 259.111 189.66 262.409 191.407C263.929 192.404 265.225 193.707 266.215 195.232C267.204 196.757 267.865 198.472 268.156 200.266L269.171 204.638L251.585 208.699C251.758 209.403 252.082 210.06 252.534 210.625C252.987 211.191 253.557 211.651 254.205 211.974C255.716 212.645 257.414 212.761 259.003 212.302C260.608 211.93 262.168 211.38 263.653 210.664C265.188 209.897 266.637 208.969 267.976 207.897L269.614 214.971C268.312 216.116 266.85 217.064 265.274 217.787C263.395 218.566 261.449 219.174 259.461 219.605ZM253.599 196.926C252.516 197.143 251.563 197.778 250.946 198.694C250.296 199.83 250.092 201.166 250.373 202.444L258.822 200.496C258.573 199.282 257.885 198.203 256.89 197.466C256.416 197.145 255.877 196.93 255.312 196.837C254.747 196.743 254.168 196.774 253.615 196.926H253.599Z" fill="black"/>
<path d="M310.307 168.073C311.141 168.139 311.969 168.276 312.78 168.482L313.337 168.63L311.699 178.045C310.596 177.717 309.458 177.519 308.309 177.456C307.458 177.308 306.585 177.33 305.742 177.521C304.899 177.713 304.102 178.069 303.397 178.569C302.823 179.112 302.364 179.763 302.046 180.486C301.728 181.209 301.558 181.988 301.546 182.778L300.351 197.106L290.297 196.271L292.72 167.123L300.204 167.745L301.383 172.527H301.874C302.831 171.063 304.151 169.873 305.706 169.072C307.114 168.31 308.71 167.963 310.307 168.073Z" fill="black"/>
<path d="M353.962 182.696C354.788 182.537 355.626 182.449 356.468 182.434H356.975L357.843 191.964C356.688 191.939 355.534 192.049 354.404 192.292C353.545 192.375 352.71 192.628 351.948 193.036C351.187 193.443 350.513 193.997 349.967 194.666C349.557 195.342 349.287 196.093 349.171 196.874C349.056 197.656 349.098 198.453 349.295 199.218L351.948 213.35L342.025 215.217L336.621 186.462L344.006 185.07L346.413 189.377L346.888 189.279C347.421 187.618 348.374 186.123 349.656 184.939C350.84 183.785 352.338 183.005 353.962 182.696Z" fill="black"/>
<path d="M456.976 185.43C457.813 185.403 458.651 185.447 459.481 185.562L460.054 185.643L459.448 195.19C458.314 194.992 457.16 194.926 456.01 194.994C455.149 194.941 454.287 195.058 453.472 195.339C452.657 195.62 451.906 196.059 451.261 196.631C450.754 197.235 450.372 197.935 450.139 198.688C449.905 199.442 449.825 200.234 449.902 201.02L450.36 215.397L440.273 215.724L439.34 186.478L446.856 186.233L448.575 190.851H449.067C449.849 189.29 451.022 187.958 452.473 186.986C453.793 186.046 455.356 185.505 456.976 185.43Z" fill="black"/>
<path d="M413.782 185.922C413.301 192.581 411.833 197.379 409.377 200.315C408.079 201.797 406.432 202.931 404.584 203.615C402.737 204.298 400.748 204.51 398.798 204.229C396.822 204.206 394.884 203.682 393.165 202.705C391.447 201.728 390.004 200.331 388.973 198.645C386.921 195.25 386.124 190.338 386.583 183.908C387.063 177.216 388.531 172.385 390.988 169.416C392.279 167.924 393.924 166.781 395.773 166.092C397.621 165.402 399.613 165.188 401.566 165.469C403.546 165.494 405.487 166.023 407.205 167.006C408.924 167.988 410.365 169.393 411.391 171.086C413.443 174.536 414.24 179.481 413.782 185.922ZM396.702 184.694C396.35 187.635 396.405 190.61 396.866 193.536C397.281 195.174 398.116 196.036 399.372 196.123C400.627 196.211 401.582 195.452 402.237 193.847C403.092 191.041 403.565 188.133 403.645 185.201C403.987 182.265 403.932 179.296 403.482 176.375C403.067 174.661 402.232 173.761 400.976 173.673C399.721 173.586 398.771 174.328 398.127 175.9C397.254 178.753 396.775 181.711 396.702 184.694Z" fill="black"/>
</svg>
